SplineFontDB: 3.0
FontName: AyannaNarrowSinhala-ExtraBold
FullName: AyannaNarrow
FamilyName: AyannaNarrow
Weight: ExtraBold
Copyright: Copyright (c) 2015, mooniak
UComments: "2015-3-5: Created with FontForge (http://fontforge.org)"
Version: pre
ItalicAngle: 0
UnderlinePosition: -102
UnderlineWidth: 51
Ascent: 819
Descent: 205
InvalidEm: 0
LayerCount: 2
Layer: 0 0 "Back" 1
Layer: 1 0 "Fore" 0
XUID: [1021 417 1726274797 7187508]
FSType: 0
OS2Version: 0
OS2_WeightWidthSlopeOnly: 0
OS2_UseTypoMetrics: 1
CreationTime: 1425560291
ModificationTime: 1441868516
OS2TypoAscent: 0
OS2TypoAOffset: 1
OS2TypoDescent: 0
OS2TypoDOffset: 1
OS2TypoLinegap: 92
OS2WinAscent: 0
OS2WinAOffset: 1
OS2WinDescent: 0
OS2WinDOffset: 1
HheadAscent: 0
HheadAOffset: 1
HheadDescent: 0
HheadDOffset: 1
OS2CapHeight: 0
OS2XHeight: 0
OS2Vendor: 'PfEd'
Lookup: 4 0 0 "'abvs' Above Base Substitutions lookup 0" { "'abvs' Above Base Substitutions lookup 0-1"  } ['abvs' ('DFLT' <'dflt' > 'grek' <'dflt' > 'latn' <'dflt' > 'sinh' <'dflt' > ) ]
MarkAttachClasses: 1
DEI: 91125
Encoding: sinhala_final
UnicodeInterp: none
NameList: sinhala
DisplaySize: -72
AntiAlias: 1
FitToEm: 1
WidthSeparation: 154
WinInfo: 0 15 12
BeginPrivate: 0
EndPrivate
Grid
-1024 912 m 1024,2,-1
-1024 755 m 0,4,-1
 3561 755 l 1024
-1024 391 m 1024,16,-1
-1024 320 m 1024,18,-1
-1023 306 m 1024,20,-1
-1024 441 m 0,28,-1
 4285 441 l 1024
-1024 594 m 0,30,-1
 4338 594 l 1024
-1024 527 m 0,32,-1
 4338 527 l 1024
-1024 457.5 m 1024
-1024 489 m 0,35,-1
 4338 489 l 1024
-1024 458.5 m 1024
-1024 249 m 0,38,-1
 4167 249 l 1024
-1024 577 m 1024
-1024 204 m 0,41,-1
 4339 204 l 1024
-1024 122 m 0,43,-1
 4339 122 l 1024
-1024 79.5 m 0,45,-1
 4339 79.5 l 1024
4338 461 m 1024
-1032 405 m 0,48,-1
 4331 405 l 1024
EndSplineSet
BeginChars: 65546 924

StartChar: si_Tta
Encoding: 34 3495 0
Width: 501
VWidth: 0
Flags: HMW
LayerCount: 2
Back
Fore
SplineSet
241.72265625 755 m 0
 410.255859375 755 497.0078125 627.543945312 497.0078125 377.400390625 c 0
 497.0078125 79.5 385.145507812 0 249.145507812 0 c 0
 71.1455078125 0 19 136.287109375 19 252.395507812 c 0
 19 421.909179688 149.729492188 528.416992188 268.865234375 445.2578125 c 1
 231 345 l 1
 167.700195312 381.518554688 129 326.717773438 129 252.395507812 c 0
 129 189.243164062 156.225585938 115 249.145507812 115 c 0
 322.53515625 115 382.0078125 170.366210938 382.0078125 377.400390625 c 0
 382.0078125 551.28515625 339.041992188 640 241.72265625 640 c 0
 200.619140625 640 160.534179688 618.959960938 143.478515625 576.85546875 c 1
 34.4462890625 613.029296875 l 1
 70.4306640625 707.868164062 155.001953125 755 241.72265625 755 c 0
EndSplineSet
EndChar

StartChar: si_Sa
Encoding: 58 3523 1
Width: 583
VWidth: 0
Flags: HW
HStem: 0 114<161.976 232.581 371.003 436.168> 318 98<19 63.0371 162.932 254.572 349.572 436.409> 497.437 96.127<167.512 244.018 360.516 435.763>
VStem: 253.447 95.9111<134.702 249.5> 262.057 80<380.758 537.336>
LayerCount: 2
Back
Fore
SplineSet
194.572265625 114 m 0
 241.272460938 114 253.447265625 175.66015625 253.447265625 249.5 c 1
 349.358398438 249.5 l 1
 349.358398438 176.205078125 362.701171875 115 405.69140625 115 c 0
 477.572265625 115 478.572265625 318 398.69140625 318 c 2
 201.572265625 318 l 2
 122.00390625 318 122.572265625 114 194.572265625 114 c 0
72.5559509222 416 m 1
 43.5741807734 499.992763604 104.265090148 593.563476562 205.380859375 593.563476562 c 0
 243.600820288 593.563476562 277.557726441 579.705419657 302.064536297 552.370955483 c 1
 326.579102814 579.705419657 360.543710962 593.563476562 398.763671875 593.563476562 c 0
 515.532109811 593.563476562 576.094700142 466.245781556 509.178306763 375.501815848 c 1
 517.438443185 366.164107764 524.497174013 355.061264749 530.572265625 342 c 0
 588.228515625 218.041992188 557.650390625 0 409.81640625 0 c 0
 353.896484375 0 313.874023438 33.14453125 299.053710938 79.0302734375 c 1
 282.908203125 31.6025390625 239.736328125 0 187.056640625 0 c 0
 46.7421875 0 11.619140625 192.653320312 63.037109375 319.563476562 c 1
 19 319.666992188 l 1
 19 416 l 1
 72.5559509222 416 l 1
170.666845704 416 m 1
 254.572265625 416 l 1
 255.6328125 422.2421875 256.13671875 428.211914062 256.13671875 433.875 c 0
 256.13671875 471.5078125 233.907226562 497.436523438 205.380859375 497.436523438 c 0
 160.724609375 497.436523438 147.537109375 446.8046875 171.765625 416.563476562 c 1
 170.666845704 416 l 1
349.572265625 416 m 1
 380.920998739 418.027709081 407.573234182 417.686137919 430.293018184 414.29712816 c 1
 454.213790731 444.578904317 443.274006661 496.000000133 398.763671875 496 c 0
 370.237304688 496 348.0078125 471.5078125 348.0078125 433.875 c 0
 348.0078125 428.211914062 348.51171875 422.2421875 349.572265625 416 c 1
EndSplineSet
EndChar

StartChar: si_La
Encoding: 54 3517 2
Width: 586
VWidth: 0
Flags: HW
HStem: -205 116<223.258 369.814> 106.106 109.2<345.178 416.896> 318 95<219 249 346.303 381> 479 115<227.375 379.128>
VStem: 19 115<33.0088 348.96> 218 163<318 413> 432.779 114<-25.5716 6.97016 229.667 424.368>
LayerCount: 2
Back
Fore
SplineSet
292 -89 m 0
 367.1484375 -89 419.736328125 -41.00390625 428.563476562 22 c 1
 542 6 l 1
 529.665039062 -108.100585938 439.083984375 -205 292 -205 c 0
 95.8955078125 -205 19 -28.6728515625 19 182 c 0
 19 377.26953125 74.9228515625 594 304 594 c 0
 476.126953125 594 546.779296875 445 546.779296875 326 c 0
 546.779296875 170.380859375 485.881835938 106.106445312 379 106.106445312 c 0
 224 106.106445312 208 256 249 318 c 1
 244.407226562 318 224.314453125 318 218 318 c 1
 219 413 l 1
 381 413 l 1
 381 318 l 1
 331 318 313.068359375 215.306640625 379 215.306640625 c 0
 419.966796875 215.306640625 432.779296875 256 432.779296875 326 c 0
 432.779296875 421.025390625 392.018554688 479 304 479 c 0
 168.212890625 479 134 326.634765625 134 182 c 0
 134 38.890625 185.895507812 -89 292 -89 c 0
EndSplineSet
EndChar

StartChar: si_Ddha
Encoding: 37 3498 3
Width: 553
VWidth: 0
Flags: HW
HStem: 0 21G<111.344 195.594 359.369 464.597> 306 85<19 50.2441 181.097 251.704> 442 87.5635<170.223 243.347>
VStem: 24.7617 107<121.299 281.556> 74.5811 92.5752<390.54 439.345> 231.875 91.2129<135.829 249.5> 244.256 85.9883<567.799 660.229> 434.484 115<137.545 504.755>
LayerCount: 2
Back
Fore
SplineSet
385.71875 0 m 0
 333.018554688 0 293.626953125 31.6025390625 277.481445312 79.0302734375 c 1
 261.3359375 31.6025390625 221.944335938 0 169.244140625 0 c 0
 53.4443359375 0 24.76171875 105.454101562 24.76171875 193.436523438 c 0
 24.76171875 234.737304688 36.244140625 280.436523438 50.244140625 306 c 1
 19 306 l 1
 19 391 l 1
 76.4360658871 390.404281113 l 1
 75.185495029 397.79667002 74.5810546875 405.154529102 74.5810546875 412.419921875 c 0
 74.5810546875 484.68359375 126.646484375 529.563476562 200.948242188 529.563476562 c 0
 277.934570312 529.563476562 349.333007812 472.899414062 349.333007812 363.563476562 c 0
 349.333007812 349 346.139648438 323 342.083984375 304 c 1
 192 304.436523438 l 2
 151.244140625 304.436523438 131.76171875 245.162109375 131.76171875 193.436523438 c 0
 131.76171875 157.760742188 137.244140625 119 169.244140625 115 c 0
 215.583984375 109.208007812 231.875 176.75 231.875 249.5 c 1
 323.087890625 249.5 l 1
 323.087890625 176.75 338.76171875 109.151367188 385.71875 115 c 0
 434.595703125 121.088346604 434.484375 239.958007812 434.484375 293 c 0
 434.484375 350.052907913 428.712121226 409.167578853 419.850628785 461.008653426 c 1
 342.275838579 463.404245635 244.255858961 525.106871406 244.255859375 611.133789062 c 0
 244.255859375 686.51171875 317.047851562 697.581054688 269.139648438 733 c 1
 341.139648438 817 l 1
 420.1171875 764.920898438 474.528320312 686.227539062 506.626953125 588 c 0
 530.615234375 514.590820312 549.484375 410 549.484375 293 c 0
 549.484375 181.99609375 543.474609375 0 385.71875 0 c 0
356.239032634 646.997809432 m 1
 339.863233143 639.976551402 330.244139089 621.139922389 330.244140625 605 c 0
 330.244140625 584.347225756 351.52263461 554.989613064 400.738106407 546.414733163 c 1
 394.846167688 579.784133141 377.525805992 626.693250066 356.239032634 646.997809432 c 1
168.638500558 389.447970283 m 1
 253.021921105 388.572757181 l 1
 251.609222115 416.532547677 234.755338565 442 200.948242188 442 c 0
 176.1484375 442 167.15625 424.133789062 167.15625 402.787109375 c 0
 167.15625 398.374401911 167.651848006 393.884220424 168.638500558 389.447970283 c 1
EndSplineSet
EndChar

StartChar: si_Dda
Encoding: 36 3497 4
Width: 565
VWidth: 0
Flags: HMW
LayerCount: 2
Back
Fore
SplineSet
434.484375 293 m 0
 434.484375 522.796875 370.83203125 639.884765625 245.91015625 639.884765625 c 0
 204.806640625 639.884765625 164.721679688 618.959960938 147.666015625 576.85546875 c 1
 38.6337890625 613.029296875 l 1
 74.6181640625 707.868164062 159.189453125 755 245.91015625 755 c 0
 446.693359375 755 549 599.055664062 549.484375 293 c 0
 549.484375 181.99609375 544 0 386.244140625 0 c 0
 330.32421875 0 292.301757812 33.14453125 277.481445312 79.0302734375 c 1
 261.3359375 31.6025390625 221.923828125 0 169.244140625 0 c 0
 53.4462890625 0 24.76171875 105.454101562 24.76171875 193.436523438 c 0
 24.76171875 234.737304688 36.244140625 280.436523438 50.244140625 306 c 1
 19 306 l 1
 19 391 l 1
 76.4360658871 390.404281113 l 1
 75.185495029 397.79667002 74.5810546875 405.154529102 74.5810546875 412.419921875 c 0
 74.5810546875 484.68359375 126.646484375 529.563476562 200.948242188 529.563476562 c 0
 277.934570312 529.563476562 349.333007812 472.899414062 349.333007812 363.563476562 c 0
 349.333007812 349 346.139648438 323 342.083984375 304 c 1
 192 304.436523438 l 2
 151.244140625 304.436523438 131.76171875 245.162109375 131.76171875 193.436523438 c 0
 131.76171875 157.760742188 139.203125 115 169.244140625 115 c 0
 215.944335938 115 231.875 176.75 231.875 249.5 c 1
 327.786132812 249.5 l 1
 327.786132812 176.75 343.25390625 115 386.244140625 115 c 0
 434.244140625 115 434.484375 239.958007812 434.484375 293 c 0
168.638500558 389.447970283 m 1
 253.021921105 388.572757181 l 1
 251.609222115 416.532547677 234.755338565 442 200.948242188 442 c 0
 176.1484375 442 167.15625 424.133789062 167.15625 402.787109375 c 0
 167.15625 398.374401911 167.651848006 393.884220424 168.638500558 389.447970283 c 1
EndSplineSet
EndChar

StartChar: NameMe.12
Encoding: 65536 -1 5
Width: 728
VWidth: 0
Flags: W
HStem: 0 122<221.569 298.459 433.925 515.2> 0 86<541.985 576.46> 307.551 84.4473<76 130.132 229.169 301.641>
VStem: 102 106.338<134.908 289.206> 318.634 95.9102<140.379 249.5>
LayerCount: 2
Back
Fore
SplineSet
541.985351562 86 m 5x78
 609.833007812 85 l 5
 724.241210938 -128.499023438 568.499023438 -244.220703125 372.967773438 -244.220703125 c 4
 212.981445312 -244.220703125 62.2255859375 -151.352539062 125.275390625 8 c 5
 231.985351562 -30 l 5
 170.985351562 -174 619.921875 -176 531.870117188 11 c 4
 541.985351562 86 l 5x78
250.032226562 445.086914062 m 4
 232.20703125 439.428710938 218.640625 420.435546875 228.481445312 391.998046875 c 5
 301.640625 391.998046875 l 5
 301.2109375 402.1484375 299.790039062 409.638671875 297.4765625 416.54296875 c 4
 288.34765625 443.784179688 266.970703125 450.462890625 250.032226562 445.086914062 c 4
276.69140625 750.219726562 m 5
 276.837890625 750.272460938 l 5
 274.502929688 763.051757812 l 5
 279.916015625 763.682617188 l 6
 369.2890625 774.09765625 453.462890625 740.361328125 512.037109375 685.104492188 c 4
 629.580078125 574.219726562 670.7734375 384.486328125 642.9375 186.834960938 c 4
 629.33203125 90.2265625 576.459960938 0 475.002929688 0 c 4
 419.08203125 0 379.0703125 33.142578125 364.240234375 79.02734375 c 5
 348.119140625 31.5908203125 304.922851562 0 252.243164062 0 c 4
 157.864257812 0 102 81.275390625 102 186.942382812 c 4
 102 228.936523438 114.108398438 276.842773438 130.131835938 305.666992188 c 5
 76 305.666992188 l 5
 76 391 l 5
 139.9921875 391 l 5
 137.538085938 405.115234375 137.2421875 416.875976562 138.6015625 428.748046875 c 4
 146.345703125 496.375 210.7109375 533.26953125 274.577148438 526.223632812 c 4
 348.333984375 518.086914062 418.94921875 451.995117188 401.74609375 311.889648438 c 6
 401.212890625 307.55078125 l 5
 242.772460938 307.55078125 l 5
 221.330078125 280.376953125 208.513671875 237.415039062 208.337890625 198.8046875 c 4
 208.138671875 155.053710938 224.03125 122 258.819335938 122 c 4
 303.704101562 122 318.633789062 173.137695312 318.633789062 244.5 c 6
 318.633789062 249.5 l 5
 414.543945312 249.5 l 5
 414.543945312 244.5 l 6
 414.543945312 173.000976562 429.655273438 122 470.877929688 122 c 4xb8
 490.083007812 122 518.063476562 125.640625 531.80078125 182.271484375 c 4
 551.754882812 264.529296875 547.53125 372.961914062 518.129882812 464.424804688 c 5
 286.165039062 426.54296875 348.004882812 656.65234375 300.423828125 652.633789062 c 4
 300.134765625 652.609375 299.844726562 652.590820312 299.5546875 652.55859375 c 6
 294.80078125 652.029296875 l 5
 294.782226562 652.130859375 l 5
 294.775390625 652.129882812 l 5
 293.947265625 656.65625 l 5
 276.69140625 750.219726562 l 5
414.791992188 579.803710938 m 4
 428.756835938 554.173828125 451.0703125 538.764648438 480.626953125 545.771484375 c 5
 468.384765625 565.178710938 451.452148438 586.458984375 435.813476562 600.876953125 c 4
 426.09375 609.837890625 413.803710938 619.052734375 402.883789062 625.185546875 c 5
 402.391601562 607.747070312 408.376953125 591.577148438 414.791992188 579.803710938 c 4
EndSplineSet
Validated: 37
EndChar

StartChar: si_A
Encoding: 3 3461 6
Width: 535
VWidth: 0
Flags: HW
HStem: 285 89<388.26 438.306> 318 103.352<176.427 283.976> 498 98<197.359 275.09>
VStem: 18.9997 116<156.787 278.81> 284.885 99.1152<398.735 506.64> 388.26 3<285 374>
LayerCount: 2
Back
Fore
SplineSet
201.731445312 418.862304688 m 2
 212.887695312 420.500976562 224.333007812 421.3515625 236 421.3515625 c 0
 254.834960938 421.3515625 267 420 284.806640625 418.436523438 c 1
 285.868164062 424.678710938 286.37109375 430.6484375 286.37109375 436.311523438 c 0
 286.37109375 473.944335938 264.141601562 498 235.615234375 498 c 0
 190.958984375 498 177.771484375 449.241210938 202 419 c 1
 201.731445312 418.862304688 l 2
117.349609375 388.530273438 m 1
 59.7041015625 478.397460938 122.255859375 596 235.615234375 596 c 0
 279.798828125 596 322.141601562 577.3359375 350.204101562 540.762695312 c 1
 370.244140625 560.9140625 428.631835938 613.930664062 490.0546875 613.930664062 c 0
 490.33203125 614.115234375 526.103515625 560.6484375 532.259765625 552 c 1
 468.684570312 516.239257812 637.987304688 301.872070312 391.259765625 285.305664062 c 1
 391.259765625 157.32421875 l 1
 424.181640625 181.560546875 441.744140625 209.04296875 448.884765625 218.458984375 c 1
 535.22265625 156.064453125 l 1
 521.337890625 136.221679688 479.603515625 66.8427734375 391.259765625 27.4697265625 c 1
 391.259765625 -205 l 1
 287.259765625 -205 l 1
 287.259765625 -4 l 1
 287.231445312 1.0908203125 l 1
 271.102539062 -0.3310546875 254.040039062 -0.7568359375 236 0 c 0
 116.884765625 5 19 96.6640625 19 217 c 0
 19 289.396484375 58.0283203125 352.2890625 117.349609375 388.530273438 c 1
285.438476562 318 m 1
 236 318 l 2
 180 318 135 273 135 217 c 0
 135 161 178.884765625 120 236 116 c 0
 254.228515625 114.723632812 271.057617188 115.166992188 286.576171875 116.94921875 c 1
 285.438476562 318 l 1
391.256835938 374.166015625 m 1
 475.463867188 379.697265625 441.501953125 452.176757812 432.259765625 489 c 1
 395.59765625 464.038085938 391.548828125 425.845703125 391.256835938 374.166015625 c 1
EndSplineSet
EndChar

StartChar: si_U
Encoding: 9 3467 7
Width: 548
VWidth: 0
Flags: HW
HStem: -205 116<215.257 375.918> 320 103.352<247.212 364.116> 500 98<277.498 355.23>
VStem: 18.9996 113.771<-1.72364 216.437> 366.511 97.6289<421.056 489.162>
LayerCount: 2
Back
Fore
SplineSet
316.139648438 320 m 0
 364.670898438 320 445.139648438 320 445.139648438 320 c 1
 457.139648438 359 464.139648438 400.735351562 464.139648438 432 c 0
 464.139648438 541.3359375 392.741210938 598 315.754882812 598 c 0
 206.448242188 598 144.381835938 488.657226562 191.762695312 400.270507812 c 1
 72.7646484375 350.846679688 19 229.219726562 19 106 c 0
 19 -49.3154296875 111.942382812 -205 298.104492188 -205 c 0
 445.188476562 -205 535.76953125 -108.100585938 548.104492188 6 c 1
 434.66796875 22 l 1
 425.840820312 -41.00390625 373.252929688 -89 298.104492188 -89 c 0
 184.104492188 -89 132.770507812 0.208984375 132.770507812 106 c 0
 132.770507812 213.90625 188.7265625 320 316.139648438 320 c 0
281.505859375 421.805664062 m 1
 258.146484375 452.098632812 271.493164062 500 315.754882812 500 c 0
 344.28125 500 366.510742188 475.944335938 366.510742188 438.311523438 c 0
 366.510742188 432.6484375 366.006835938 426.678710938 364.946289062 420.436523438 c 1
 347.139648438 422 334.974609375 423.3515625 316.139648438 423.3515625 c 0
 304.209960938 423.3515625 292.666992188 422.826171875 281.505859375 421.805664062 c 1
EndSplineSet
EndChar

StartChar: si_Da
Encoding: 42 3503 8
Width: 394
VWidth: 0
Flags: HW
HStem: -202.407 105.407<266.95 361.33> 0 21G<175.832 271.227> 318 103.352<176.427 283.976> 498 98<196.79 275.091>
VStem: 19 116<155.986 278.81> 96.9561 93.4756<415.492 492.554> 286.371 97.6289<419.056 487.162>
LayerCount: 2
Back
Fore
SplineSet
380 -54.5634765625 m 1
 457 -106.563476562 l 1
 411.088867188 -175.430664062 356.333007812 -202.407226562 306.0546875 -202.407226562 c 0
 186.175726462 -202.407226562 116.987373771 -87.7154048775 168.663084739 10.5444845696 c 1
 81.5535913421 38.7125690552 19 120.196970628 19 217 c 0
 19 289.376216905 58.0064769409 352.254149437 117.299649221 388.500107323 c 1
 102.879233382 410.822276674 96.9560546875 434.076654766 96.9560546875 458.407226562 c 0
 96.9560546875 534.13671875 149.055664062 596 235.615234375 596 c 0
 312.60546875 596 384 539.3359375 384 430 c 0
 384 398.735351562 377 357 365 318 c 1
 365 318 284.53125 318 236 318 c 0
 180 318 135 273 135 217 c 0
 135 161 180 116 236 116 c 0
 271.29296875 116 302.569335938 131.385742188 322.662109375 155.436523438 c 1
 409 93.0419921875 l 1
 376.427540536 46.9632985268 329.132517627 14.3655296104 274.776539199 3.74077980618 c 1
 245.738906574 -30.1392057747 254.128855598 -96.9999996073 306.0546875 -97 c 0
 330.685546875 -97 357.508789062 -85.0556640625 380 -54.5634765625 c 1
201.731167357 418.862137106 m 2
 212.887466566 420.501430479 224.332615718 421.3515625 236 421.3515625 c 0
 254.834960938 421.3515625 267 420 284.806640625 418.436523438 c 1
 285.868164062 424.678710938 286.37109375 430.6484375 286.37109375 436.311523438 c 0
 286.37109375 473.944335938 264.141601562 498 235.615234375 498 c 0
 206.259765625 498 190.431640625 477 190.431640625 453.1640625 c 0
 190.431640625 441.108398438 194.016601562 428.124023438 202 419 c 1
 201.731167357 418.862137106 l 2
EndSplineSet
EndChar

StartChar: si_Va
Encoding: 55 3520 9
Width: 522
VWidth: 0
Flags: W
HStem: 0 115<172.612 326.262> 306 85<149.321 234.048> 444 87.5635<151.355 224.376> 639.885 115.115<172.387 313.278>
VStem: 19 110.676<154.911 292.589> 58.7246 89.4805<391.283 441.95> 395.188 115<199.266 524.68>
LayerCount: 2
Back
Fore
SplineSet
240.04296875 755 m 0xfa
 379.514648438 755 510.188476562 675.859375 510.188476562 354 c 0
 510.188476562 118 429.188476562 0 249.188476562 0 c 0
 71.1884765625 0 19 137 19 218.826171875 c 0xfa
 19 278.475885298 38.324953336 334.025590215 68.0573592058 360.834159793 c 1
 61.8869028167 377.477481932 58.724609375 393.521207216 58.724609375 409.272460938 c 0xf6
 58.724609375 481.53515625 107.6953125 531.563476562 181.997070312 531.563476562 c 0
 258.983398438 531.563476562 330.381835938 474.899414062 330.381835938 365.563476562 c 0
 330.381835938 351 327.188476562 325 323.1328125 306 c 1
 299.125 306 198.076171875 306 198.076171875 306 c 2
 142.076171875 306 129.67578125 270.6015625 129.67578125 226.6015625 c 0
 129.67578125 174 156.268554688 115 249.188476562 115 c 0
 353.640625 115 395.188476562 195.017578125 395.188476562 354 c 0
 395.188476562 583 322.868164062 639.884765625 240.04296875 639.884765625 c 0
 198.939453125 639.884765625 158.854492188 618.959960938 141.798828125 576.85546875 c 1
 32.7666015625 613.029296875 l 1
 68.7509765625 707.868164062 153.322265625 755 240.04296875 755 c 0xfa
234.047949222 391 m 1
 232.485838935 418.791444991 215.631889456 444 181.997070312 444 c 0
 157.197265625 444 148.205078125 426.133789062 148.205078125 404.787109375 c 0xf6
 148.205078125 400.0630246 149.051825442 395.444143804 150.458114216 390.941617353 c 0
 151.982161731 390.980449509 153.521476814 391 155.076171875 391 c 2
 234.047949222 391 l 1
EndSplineSet
EndChar

StartChar: si_Ca
Encoding: 27 3488 14
Width: 524
VWidth: 0
Flags: HW
HStem: 0 115<169.797 320.835> 306 87<18.9998 50.2439 163.984 227.326> 444 87.5635<145.928 218.969> 639.885 115.115<166.961 307.852>
VStem: 53.2977 89.4805<392.718 441.95> 389.762 115<199.266 524.68>
LayerCount: 2
Back
Fore
SplineSet
136.041015625 237 m 0
 125.459960938 185 149.76171875 115 243.76171875 115 c 0
 348.213867188 115 389.76171875 195.017578125 389.76171875 354 c 0
 389.76171875 583 317.44140625 639.884765625 234.616210938 639.884765625 c 0
 193.512695312 639.884765625 153.427734375 618.959960938 136.372070312 576.85546875 c 1
 27.33984375 613.029296875 l 1
 63.32421875 707.868164062 147.895507812 755 234.616210938 755 c 0
 374.087890625 755 504.76171875 675.859375 504.76171875 354 c 0
 504.76171875 118 423.76171875 0 243.76171875 0 c 0
 65.76171875 0 16.3212890625 133.560546875 26.353515625 223 c 0
 29.9697265625 255.19921875 39.34375 286.096679688 50.244140625 306 c 1
 19 306 l 1
 19 393 l 1
 54.455078125 392.598632812 l 1
 53.685546875 398.201171875 53.2978515625 403.754882812 53.2978515625 409.272460938 c 0
 53.2978515625 481.53515625 102.268554688 531.563476562 176.5703125 531.563476562 c 0
 253.556640625 531.563476562 324.955078125 474.899414062 324.955078125 365.563476562 c 0
 324.955078125 351 321.76171875 325 317.706054688 306 c 1
 192 306 l 2
 159.672851562 306 143.05859375 271.489257812 136.041015625 237 c 0
228.641601562 390.625976562 m 1
 227.209960938 418.564453125 210.356445312 444 176.5703125 444 c 0
 151.770507812 444 142.778320312 426.133789062 142.778320312 404.787109375 c 0
 142.778320312 400.284179688 143.547851562 395.876953125 144.837890625 391.57421875 c 1
 228.641601562 390.625976562 l 1
EndSplineSet
EndChar

StartChar: si_Ma
Encoding: 50 3512 15
Width: 516
VWidth: 0
Flags: HW
HStem: 0 115.115<186.56 331.123> 220.553 88.0215<230.223 273.982> 433 94<131.592 166.16> 443.822 83.1777<230.008 273.386>
VStem: 19 100.713<192.366 429.897> 151.251 75.749<310.75 398.259> 168.854 50<415.308 436> 279.854 80.4834<311.882 440.426> 402 106.854<211.847 529.902>
LayerCount: 2
Back
Fore
SplineSet
508.854492188 377.395507812 m 0
 508.854492188 204 469 0 260 0 c 0
 108.12890625 0 19 127 19 296 c 0
 19 410.515625 39 527 143 527 c 0
 167.184947259 527 187.420811483 521.45462804 202.549114205 509.169170473 c 1
 217.272309226 520.641315679 236.353796257 526.987686957 258.854492188 527 c 0
 340.116210938 527.043945312 360.337890625 466.00390625 360.337890625 382.768554688 c 0
 360.337890625 299.954101562 358.737304688 220.44140625 255.854492188 220.552734375 c 0
 182.252929688 220.631835938 151.115234375 272.322265625 151.250976562 333 c 0
 151.383789062 392.200195312 176.419921875 433 148 433 c 0
 127.932617188 433 119.712890625 381.952148438 119.712890625 300.756835938 c 0
 119.712890625 222.424804688 151.672851562 115.115234375 260 115.115234375 c 0
 377 115.115234375 402 244.619140625 402 377.395507812 c 0
 402 459.568359375 386.100585938 540.287109375 350.685546875 590 c 0
 301.930664062 658.4375 182.854492188 654 150.854492188 575 c 1
 44.75390625 613.290039062 l 1
 104.854492188 789 354.776367188 804.66015625 450.028320312 646 c 0
 502.041015625 559.36328125 508.854492188 442.221679688 508.854492188 377.395507812 c 0
235.746642374 440.378474479 m 1
 237.499249488 431.070031802 238.661005439 420.459425285 238.7109375 408 c 0
 238.8046875 384.65234375 227.03515625 364.890625 227 344 c 0
 226.962890625 322.444335938 240.0390625 308.720703125 254.854492188 308.57421875 c 0
 274.60546875 308.37890625 279.9375 350.478515625 279.854492188 382 c 0
 279.854492188 403.85546875 274.013671875 443.763671875 252.854492188 443.822265625 c 0
 246.81292174 443.838904295 240.902514464 442.858161475 235.746642374 440.378474479 c 1
EndSplineSet
EndChar

StartChar: si_Ga
Encoding: 23 3484 16
Width: 651
VWidth: 0
Flags: HW
HStem: 0 110<170.169 280.96 381.935 482.668> 486 108<164.3 253.345 386.344 478.41>
VStem: 19.0002 110<164.705 439.499> 263 102<351.59 450.634> 305 102.992<158.933 262.917> 522.907 110<160.147 429.295>
LayerCount: 2
Back
Fore
SplineSet
427.907226562 0.15625 m 0
 534.90625 0.15625 632.907226562 62.703125 632.907226562 297.078125 c 0
 632.907226562 531.453125 534.90625 594 427.907226562 594 c 0
 387.87109375 594 346.556640625 577.180664062 315.295898438 544.548828125 c 1
 294.85546875 570.749023438 259.12890625 594 207.372070312 594 c 0
 103.772460938 594 19 519.49609375 19 296.921875 c 0
 19 62.546875 117.000976562 0 224 0 c 0
 270.090820312 0 306.569335938 13.0322265625 334.478515625 34.0498046875 c 1
 355.735351562 14.8564453125 386.75390625 0.15625 427.907226562 0.15625 c 0
224 110 m 0
 174.415039062 110 129 149.375 129 296.921875 c 0
 129 438.581054688 164.26953125 486 207.372070312 486 c 0
 243.54296875 486 259.475585938 460.772460938 266.427734375 443.27734375 c 1
 264.192382812 430.021484375 263 415.924804688 263 401 c 0
 263 369 259 344 207 311 c 1
 260 220 l 1
 271.4609375 226.494140625 282.375 233.655273438 292.532226562 241.377929688 c 1
 299.844726562 229.877929688 305 215.786132812 305 199 c 0
 305 155.278320312 285 110 224 110 c 0
358.672851562 325.540039062 m 1
 362.78125 337.412109375 365 349.619140625 365 362 c 0
 365 438 380.495117188 484 427.907226562 484 c 0
 477.4921875 484 522.907226562 444.625 522.907226562 297.078125 c 0
 522.907226562 147.163085938 477.487304688 108 427.907226562 108 c 0
 413.78515625 108 402.748046875 111.86328125 394.125 117.6171875 c 1
 403.55859375 143.758789062 407.9921875 171.80078125 407.9921875 199 c 0
 407.9921875 241.3515625 394.609375 293.512695312 358.672851562 325.540039062 c 1
EndSplineSet
EndChar

StartChar: si_Ya
Encoding: 52 3514 17
Width: 552
VWidth: 0
Flags: HW
HStem: 0 122<148.354 220.757 356.309 423.502> 319.563 96.4365<334.991 420.44> 501.284 92.7158<346.283 427.098>
VStem: 19 101.472<156.047 396.65> 240.781 95.9111<139.916 249.5>
LayerCount: 2
Back
Fore
SplineSet
386.025390625 319.563476562 m 2
 465.907226562 319.303710938 464.90625 122 393.025390625 122 c 0
 350.03515625 122 336.692382812 176.75 336.692382812 249.5 c 1
 240.78125 249.5 l 1
 240.78125 176.75 228.606445312 122 181.90625 122 c 0
 131.70703125 122 120.471679688 228.951171875 120.471679688 283 c 0
 120.471679688 366.8359375 145.90625 441 200.90625 441 c 1
 203.422851562 548.772460938 l 1
 79.3603515625 548.772460938 19 418.984375 19 269.495117188 c 0
 19 147.606445312 58.0908203125 0 174.390625 0 c 0
 227.0703125 0 270.2421875 31.6025390625 286.387695312 79.0302734375 c 1
 301.208007812 33.14453125 341.23046875 0 397.150390625 0 c 0
 544.984375 0 575.5625 218.041992188 517.90625 342 c 0
 511.169182367 356.484493339 503.222430594 368.560510407 493.769002475 378.491657897 c 1
 559.499541572 492.855589431 495.412754938 594 393.712890625 594 c 0
 274.07421875 594 213.90625 489 251.90625 320 c 1
 386.025390625 319.563476562 l 2
422.198622208 413.564810644 m 1
 398.503160072 417.628863147 370.382503018 418.165322025 336.90625 416 c 1
 325.90625 486 364.375976562 501.284179688 390.401367188 501.284179688 c 0
 428.733726524 501.284179688 446.764473869 461.315593029 422.198622208 413.564810644 c 1
EndSplineSet
EndChar

StartChar: si_Ka
Encoding: 21 3482 19
Width: 707
VWidth: 0
Flags: HW
HStem: 0 109<131.273 186.04 284.032 343.929 441.534 542.466> 482 112<367.657 501.761> 494.101 98<116.449 193.781>
VStem: 18.9996 92.5752<402.907 489.383> 26.0875 99<115 241.573> 190.088 90<111.297 227> 205.371 97.6289<410.468 502.741> 353.088 107<158.803 312.772> 577.088 111<149.545 393.282>
LayerCount: 2
Back
Fore
SplineSet
319.130859375 0 m 0
 280.130859375 0 245.130859375 29 235.715820312 52 c 1
 227.130859375 31 196.130859375 0 152.087890625 0 c 0
 47.3193359375 0 31.66796875 96.1904296875 53.74609375 143.287109375 c 1
 37.8623046875 126.889648438 27.59375 116.366210938 26.087890625 115 c 2
 23.087890625 249 l 1
 74.0205078125 301.453125 77.0234375 302.512695312 101.866210938 328.96875 c 1
 59.15625 348.068359375 19 393.70703125 19 459.63671875 c 0
 19 530.232421875 67 592.100585938 154.615234375 592.100585938 c 0
 203.295898438 592.100585938 249.740234375 569.446289062 277.313476562 525.145507812 c 1
 320.702148438 564.512695312 374.271484375 594 444.087890625 594 c 0
 551.086914062 594 688.087890625 513.375 688.087890625 279 c 0
 688.087890625 56.42578125 594.315429688 0 490.715820312 0 c 0
 451.786132812 0 421.92578125 13.154296875 400.817382812 30.82421875 c 1
 380.188476562 11.693359375 353.364257812 0 319.130859375 0 c 0
450.051757812 122.963867188 m 1
 459.438476562 114.387695312 472.514648438 108 490.715820312 108 c 0
 533.818359375 108 577.087890625 137.340820312 577.087890625 279 c 0
 577.087890625 426.546875 493.672851562 482 444.087890625 482 c 0
 413.547851562 482 378.056640625 474.810546875 334.595703125 434.322265625 c 1
 378.807617188 429.651367188 460.087890625 386.413085938 460.087890625 210 c 0
 460.087890625 181.14453125 457.05078125 151.053710938 450.051757812 122.963867188 c 1
259.053710938 356.388671875 m 1
 224.5546875 320.510742188 180.947265625 275.176757812 140.803710938 233.5 c 1
 126.9375 212.4296875 125.087890625 184.073242188 125.087890625 156 c 0
 125.087890625 138.591796875 131.80859375 109 155.087890625 109 c 0
 173.745117188 109 190.087890625 119 190.087890625 160 c 0
 190.087890625 176.21875 190.087890625 202.995117188 190.087890625 227 c 1
 280.087890625 227 l 1
 280.087890625 202.2265625 280.087890625 176.891601562 280.087890625 160 c 0
 280.087890625 122 292.087890625 109 318.087890625 109 c 0
 353.087890625 109 353.087890625 165.987304688 353.087890625 210 c 0
 353.087890625 318.396484375 304.971679688 358.708984375 259.053710938 356.388671875 c 1
142.7265625 236.267578125 m 2
 155.087890625 249 l 2
 150.231445312 245.216796875 146.151367188 240.94140625 142.7265625 236.267578125 c 2
156.544921875 389.5234375 m 1
 170.831054688 405.965820312 188.7109375 426.733398438 204.423828125 445.03515625 c 1
 199.732421875 475.33984375 178.192382812 494.100585938 153 494.100585938 c 0
 125.166015625 494.100585938 111.575195312 473.11328125 111.575195312 450.00390625 c 0
 111.575195312 415.546875 131.772460938 398.157226562 156.544921875 389.5234375 c 1
EndSplineSet
EndChar

StartChar: si_Ra
Encoding: 53 3515 20
Width: 489
VWidth: 0
Flags: HW
HStem: 0 111.425<183.177 311.22>
VStem: 19 112.779<167.299 380.347> 270.045 116<685.764 779> 358.07 114.017<165.828 384.99>
LayerCount: 2
Back
Fore
SplineSet
247.25390625 440.705078125 m 0
 328.528320312 440.705078125 358.0703125 362.481445312 358.0703125 274.73828125 c 0
 358.0703125 185.564453125 328.528320312 111.424804688 247.25390625 111.424804688 c 0
 163.073242188 111.424804688 131.779296875 185.564453125 131.779296875 274.73828125 c 0
 131.779296875 362.481445312 163.073242188 440.705078125 247.25390625 440.705078125 c 0
284.419134396 549.307168929 m 1
 284.64256056 549.560434382 284.851372197 549.791692698 285.044921875 550 c 0
 390.043945312 663.000976562 386.044921875 714 386.044921875 779 c 1
 270.044921875 779 l 1
 270.044921875 720 264.759765625 681.7734375 134.044921875 552 c 0
 90.2861328125 508.555664062 58.044921875 447 58.044921875 447 c 1
 58.1402017754 446.955276781 l 1
 31.946838361 400.468941098 19 341.488166388 19 276.064453125 c 0
 19 118.177734375 93.0419921875 0 245.224609375 0 c 0
 398.045898438 0 472.086914062 118.177734375 472.086914062 276.064453125 c 0
 472.086914062 418.498235451 410.722918126 530.394085747 284.419134396 549.307168929 c 1
EndSplineSet
EndChar

StartChar: si_Pha
Encoding: 47 3509 22
Width: 536
VWidth: 0
Flags: HW
HStem: 0 115<172.612 335.032> 306 85<170.969 232.753 261.188 272.004> 444 87.5635<151.355 224.396>
VStem: 19 110.676<154.911 291.862> 58.7246 89.4805<389.062 441.95> 408.188 115<203.573 495.847>
LayerCount: 2
Back
Fore
SplineSet
249.188476562 115 m 0
 353.640625 115 408.188476562 181.017578125 408.188476562 340 c 0
 408.188476562 383.212087054 405.530158813 424.422150648 399.984851587 463.03960874 c 1
 322.556532075 465.88910521 225.304687501 527.444610068 225.3046875 613.133789062 c 0
 225.3046875 688.51171875 298.096679688 699.581054688 250.188476562 735 c 1
 322.188476562 819 l 1
 460.188476562 728 523.188476562 555.741210938 523.188476562 340 c 0
 523.188476562 104 429.188476562 0 249.188476562 0 c 0
 71.1884765625 0 19 137 19 218.826171875 c 0
 19 278.475885298 38.324953336 334.025590215 68.0573592058 360.834159793 c 1
 61.8869028167 377.477481932 58.724609375 393.521207216 58.724609375 409.272460938 c 0
 58.724609375 481.53515625 107.6953125 531.563476562 181.997070312 531.563476562 c 0
 258.983398438 531.563476562 330.381835938 474.899414062 330.381835938 365.563476562 c 0
 330.381835938 351 327.188476562 325 323.1328125 306 c 1
 299.125 306 198.076171875 306 198.076171875 306 c 2
 142.076171875 306 129.67578125 270.6015625 129.67578125 226.6015625 c 0
 129.67578125 174 156.268554688 115 249.188476562 115 c 0
234.047949222 391 m 1
 232.485838935 418.791444991 215.631889456 444 181.997070312 444 c 0
 157.197265625 444 148.205078125 426.133789062 148.205078125 404.787109375 c 0
 148.205078125 400.0630246 149.051825442 395.444143804 150.458114216 390.941617353 c 0
 151.982161731 390.980449509 153.521476814 391 155.076171875 391 c 2
 234.047949222 391 l 1
334.439286822 652.712262414 m 1
 296.643820416 633.437719156 302.663720336 568.830428148 378.122826866 559.67749451 c 1
 366.924269629 594.213363696 352.446394568 625.44010163 334.439286822 652.712262414 c 1
EndSplineSet
EndChar

StartChar: si_Nna
Encoding: 38 3499 23
Width: 875
VWidth: 0
Flags: HW
HStem: 0 110<588.329 702.812> 8.94727 103.604<133.164 335.894> 151 98.2773<141.835 235.411> 347.702 89.2979<154.692 236.43> 406 114<508.647 572.829 678.086 726.512> 480 114<178.739 367.832>
VStem: 50.0146 84.9854<298.488 371> 244.659 100.341<257.79 338.84> 391 116<685.764 779> 399.901 115<186.148 456> 578.957 93<333 404.064> 738.841 115<146.798 401.991>
LayerCount: 2
Back
Fore
SplineSet
146.235351562 298.48828125 m 0
 146.235351562 325.829101562 168.106445312 347.702148438 195.446289062 347.702148438 c 0
 222.786132812 347.702148438 244.659179688 325.829101562 244.659179688 298.48828125 c 0
 244.659179688 271.1484375 222.786132812 249.27734375 195.446289062 249.27734375 c 0
 168.106445312 249.27734375 146.235351562 271.1484375 146.235351562 298.48828125 c 0
546.754882812 406 m 0
 573.754882812 406 578.95703125 372 578.95703125 333 c 0
 578.95703125 267.864257812 578.95703125 238 578.95703125 238 c 1
 671.95703125 238 l 1
 671.95703125 238 671.95703125 267.864257812 671.95703125 333 c 0
 671.95703125 372 677.159179688 406 704.159179688 406 c 0
 738 406 738.840820312 338.390625 738.840820312 277 c 0
 738.840820312 208.103515625 735.262695312 110 651 110 c 0
 590 110 579 141 568 168 c 1
 482.112473112 137.581500894 l 1
 496.147734027 165.72752426 505.890075014 198.37748639 510.924634454 235.417494859 c 1
 512 235 l 1
 513.8484384 245.679866312 514.338409145 259.185912164 514.37411033 273.906748678 c 0
 514.724675074 281.474648528 514.90136719 289.198698648 514.901367188 297.078125 c 0
 514.901367188 306.956501284 514.616487516 316.585996791 514.057830532 325.966969347 c 0
 514.495060774 368.240527994 519.175754214 406.000000001 546.754882812 406 c 0
84.7308165358 203.042186569 m 1
 48.4258664149 168.57134978 33.2082474672 138.403505498 19 29 c 1
 121 9 l 1
 151 41 198.549804688 8.947265625 250 8.947265625 c 0
 352.154013805 8.947265625 429.959170549 47.7142045835 474.030816738 122.671703102 c 1
 491.392403354 43.7956865013 570.248150519 2.40649218955e-09 651 0 c 0
 845.578125 0 853.840820312 166 853.840820312 277 c 0
 853.840820312 386 847.842773438 520 712 520 c 0
 673 520 634.943359375 491.129882812 625.45703125 468 c 1
 615.970703125 491.129882812 577.9140625 520 538.9140625 520 c 0
 506.277657225 520 481.495019287 509.449284522 463.370946068 490.354539784 c 1
 447.178442625 514.29567662 427.700923479 534.06509492 405.713988411 549.6877922 c 1
 405.812721515 549.796970384 405.908081828 549.901073352 406 550 c 0
 510.999023438 663.000976562 507 714 507 779 c 1
 391 779 l 1
 391 726.534290418 386.819914654 690.496246746 293.977773474 591.901664447 c 1
 282.532210189 593.301141339 270.854754263 594 259 594 c 0
 70 594 -14 382 65 233 c 1
 65.0794321194 233.091788227 l 1
 70.4040595378 222.244092601 77.0197016926 212.162378032 84.7308165358 203.042186569 c 1
174.132663591 152.810675281 m 1
 181.738050854 151.618580787 189.543161913 151 197.502929688 151 c 0
 279.444335938 151 345 216.549804688 345 298.48828125 c 0
 345 336.970703125 330.541015625 371.838867188 306.717773438 398 c 0
 283.909179688 423.046875 249.567382812 437 216.227539062 437 c 0
 188.812668983 437 162.07411576 427.865554491 142.980113097 413.526827768 c 1
 158.02842895 450.930576032 194.974610493 480.000000002 259 480 c 0
 336.28125 480 399.901367188 416 399.901367188 297.078125 c 0
 399.901367188 185.544921875 354.487304688 112.55078125 257.546875 112.55078125 c 0
 210.243717237 112.55078125 172.004539599 130.06681158 142.32343049 116.162766428 c 1
 150.770043693 133.825136446 161.364395411 144.138841757 174.132663591 152.810675281 c 1
EndSplineSet
EndChar

StartChar: si_I
Encoding: 7 3465 24
Width: 534
VWidth: 0
Flags: HW
HStem: -204.817 106.465<184.462 280.954> 151 98.2773<139.375 219.01> 347.702 89.2979<138.291 220.028> 480 114<162.338 315.295>
VStem: 33.6131 84.9854<298.488 371> 228.258 100.341<257.79 338.84> 290.433 106.841<-87.9012 7.828> 391.599 115<206.814 397.214>
LayerCount: 2
Back
Fore
SplineSet
129.8359375 298.48828125 m 0
 129.8359375 325.829101562 151.70703125 347.702148438 179.046875 347.702148438 c 0
 206.38671875 347.702148438 228.259765625 325.829101562 228.259765625 298.48828125 c 0
 228.259765625 271.1484375 206.38671875 249.27734375 179.046875 249.27734375 c 0
 151.70703125 249.27734375 129.8359375 271.1484375 129.8359375 298.48828125 c 0
290.434570312 -49 m 0
 290.434570312 -78.2548828125 265.978515625 -98.3525390625 235.412109375 -98.3525390625 c 0
 214.057617188 -98.3525390625 189.719726562 -87.1220703125 168.655273438 -58.5634765625 c 1
 91.6552734375 -110.563476562 l 1
 133.484375 -176.14453125 192.438476562 -204.817382812 247.423828125 -204.817382812 c 0
 326.44921875 -204.817382812 397.275390625 -143.0078125 397.275390625 -49 c 0
 397.275390625 -11.419921875 380.521484375 14.1650390625 363.508789062 32.3681640625 c 1
 464.342773438 93.568359375 506.600585938 216.65625 506.600585938 297.078125 c 0
 506.600585938 496 382.982421875 594 242.600585938 594 c 0
 53.6005859375 594 -30.3994140625 382 48.6005859375 233 c 1
 48.6796875 233.091796875 l 1
 72.6318359375 184.296875 122.705078125 151 181.103515625 151 c 0
 263.044921875 151 328.600585938 216.549804688 328.600585938 298.48828125 c 0
 328.600585938 336.970703125 314.142578125 371.838867188 290.318359375 398 c 0
 267.509765625 423.046875 233.16796875 437 199.828125 437 c 0
 172.413085938 437 145.674804688 427.865234375 126.581054688 413.526367188 c 1
 141.62890625 450.930664062 178.575195312 480 242.600585938 480 c 0
 319.881835938 480 391.600585938 416 391.600585938 297.078125 c 0
 391.600585938 210.806640625 325.600585938 86 181.600585938 94 c 1
 166.600585938 0 l 1
 208.633789062 -6.8623046875 246.250976562 -6.17578125 279.731445312 0.2822265625 c 1
 286.52734375 -11.240234375 290.434570312 -26.505859375 290.434570312 -49 c 0
EndSplineSet
EndChar

StartChar: si_Pa
Encoding: 46 3508 25
Width: 558
VWidth: 0
Flags: HW
HStem: 318 98<154.447 233.201 334.238 412.993> 495.563 98<146.697 239.828 327.611 420.743>
VStem: 19 107<168.63 289.861> 46.8623 93.4756<405.008 490.118> 233.533 100.373<367.509 536.899> 427.102 93.4756<405.008 490.118> 441.439 107<168.629 289.861>
LayerCount: 2
Back
Fore
SplineSet
359 318 m 0
 294.012695312 318 273.426757812 318 208.439453125 318 c 0
 153.439453125 318 126 275.725585938 126 224 c 0
 126 63.9228515625 441.439453125 64.5234375 441.439453125 224 c 0
 441.439453125 275.725585938 414 318 359 318 c 0
283.719726562 556.259961297 m 1
 310.625638254 580.9898745 345.650967815 593.563476562 381.91796875 593.563476562 c 0
 468.477539062 593.563476562 520.577148438 531.700195312 520.577148438 455.970703125 c 0
 520.577148438 428.596943417 510.122237886 396.222926779 491.370120742 371.172265214 c 1
 529.431947777 335.887944205 548.439453125 282.948837316 548.439453125 224 c 0
 548.439453125 -91 19 -90.99609375 19 224 c 0
 19 282.948837316 38.0075053479 335.887944205 76.0693323835 371.172265212 c 1
 57.3172152396 396.222926778 46.8623046866 428.596943417 46.8623046875 455.970703125 c 0
 46.8623046875 531.700195312 98.9619140625 593.563476562 185.521484375 593.563476562 c 0
 221.78848531 593.563476562 256.813814871 580.9898745 283.719726562 556.259961297 c 1
332.782375393 450.74585666 m 0
 333.522998423 443.302189765 333.906249382 435.574206332 333.90625 427.563476562 c 0
 333.90625 423.806876256 333.805922761 419.948722113 333.608561501 416 c 2
 334.23828125 416 l 1
 334.23828125 416 339.95703125 416 365 416 c 0
 382.334705955 416 398.439035615 414.267622027 413.313754904 410.993386341 c 1
 420.921248725 420.480349861 427.101562521 439.092934019 427.1015625 450.727539062 c 0
 427.1015625 474.563476562 411.2734375 495.563476562 381.91796875 495.563476562 c 0
 357.924951236 495.563476562 338.38646362 478.546039383 332.782375393 450.74585666 c 0
234.657077509 450.745860836 m 0
 229.052987533 478.546041111 209.514500682 495.563476561 185.521484375 495.563476562 c 0
 156.166015625 495.563476562 140.337890625 474.563476562 140.337890625 450.727539062 c 0
 140.337890625 439.092933987 146.518204354 420.480349967 154.125698117 410.993386409 c 1
 169.00041745 414.267622011 185.104747139 415.999999991 202.439453125 416 c 0
 221.921875 416 233.201171875 416 233.201171875 416 c 1
 233.830891624 416 l 2
 233.633530364 419.948722113 233.533203125 423.806876256 233.533203125 427.563476562 c 0
 233.533203125 435.57420787 233.916454225 443.302192674 234.657077509 450.745860836 c 0
EndSplineSet
EndChar

StartChar: si_E
Encoding: 15 3473 26
Width: 538
VWidth: 0
Flags: HW
HStem: 0 115<169.664 329.843> 306 87<19.238 19.238 164.735 227.564> 444 87.5635<146.166 219.207>
VStem: 53.5359 89.4805<392.718 441.95> 403 115<203.573 495.847>
LayerCount: 2
Back
Fore
SplineSet
244 115 m 0
 348.452148438 115 403 181.017578125 403 340 c 0
 403 383.211914062 400.341796875 424.421875 394.795898438 463.040039062 c 1
 317.368164062 465.888671875 220.116210938 527.444335938 220.116210938 613.133789062 c 0
 220.116210938 688.51171875 292.908203125 699.581054688 245 735 c 1
 317 819 l 1
 455 728 518 555.741210938 518 340 c 0
 518 104 424 0 244 0 c 0
 66 0 16.546875 133.561523438 26.591796875 223 c 0
 30.2080078125 255.19921875 41 286 56 306 c 1
 19.23828125 306 l 1
 19.23828125 393 l 1
 54.693359375 392.598632812 l 1
 53.923828125 398.201171875 53.5361328125 403.754882812 53.5361328125 409.272460938 c 0
 53.5361328125 481.53515625 102.506835938 531.563476562 176.80859375 531.563476562 c 0
 253.794921875 531.563476562 325.193359375 474.899414062 325.193359375 365.563476562 c 0
 325.193359375 351 322 325 317.944335938 306 c 1
 211 306 l 2
 154.21484375 306 133.981445312 261.911132812 133.981445312 214.068359375 c 0
 133.981445312 166.573242188 163.315429688 115 244 115 c 0
228.879882812 390.625976562 m 1
 227.448242188 418.564453125 210.594726562 444 176.80859375 444 c 0
 152.008789062 444 143.016601562 426.133789062 143.016601562 404.787109375 c 0
 143.016601562 400.284179688 143.786132812 395.876953125 145.076171875 391.57421875 c 1
 228.879882812 390.625976562 l 1
329.250976562 652.711914062 m 1
 291.455078125 633.4375 297.475585938 568.830078125 372.934570312 559.677734375 c 1
 361.735351562 594.212890625 347.2578125 625.440429688 329.250976562 652.711914062 c 1
EndSplineSet
EndChar

StartChar: si_Ha
Encoding: 59 3524 27
Width: 662
VWidth: 0
Flags: HW
HStem: 0 110<160.319 292.626 397.11 504.232> 319.31 98<154.447 322.301> 473.844 110<393.67 496.74> 496.873 98<146.697 224.997>
VStem: 19 107<145.617 292.228> 46.8623 93.4756<406.318 491.427> 310.291 106<159.797 225.178> 540.291 110<155.517 418.334>
LayerCount: 2
Back
Fore
SplineSet
445.291015625 0 m 0
 552.290039062 0 650.291015625 51.46875 650.291015625 285.84375 c 0
 650.291015625 520.21875 552.290039062 583.84375 445.291015625 583.84375 c 0
 373.198274952 583.84375 333.306257341 560.44791215 309.543119913 525.750579685 c 1
 282.149130007 571.479220161 234.990403591 594.873046875 185.521484375 594.873046875 c 0
 98.9619140625 594.873046875 46.8623046875 533.009765625 46.8623046875 457.280273438 c 0
 46.8623046875 429.906513729 57.31721524 397.532497091 76.0693323828 372.481835526 c 1
 38.0075053479 337.197514517 19 284.258407628 19 225.309570312 c 0
 19 67.8115234375 129.291015625 0 223.291015625 0 c 0
 279.711714397 0 320.994075758 14.0064990995 350.543918824 35.1014272211 c 1
 371.829281307 15.3200620161 403.279343457 -6.51301929055e-15 445.291015625 0 c 0
154.125698221 412.302956653 m 1
 146.518204399 421.789920173 140.337890604 440.402504331 140.337890625 452.037109375 c 0
 140.337890625 475.873046875 156.166015625 496.873046875 185.521484375 496.873046875 c 0
 214.047851562 496.873046875 236.27734375 472.817382812 236.27734375 435.184570312 c 0
 236.27734375 429.521484375 235.774414062 423.551757812 234.712890625 417.309570312 c 1
 233.201171875 417.309570312 l 1
 233.201171875 417.309570312 221.921875 417.309570312 202.439453125 417.309570312 c 0
 185.10474717 417.309570312 169.00041751 415.577192339 154.125698221 412.302956653 c 1
252.509032836 318.982722542 m 1
 243.378012072 292.817074128 229.863439934 270.31700221 207.291015625 255 c 1
 266.291015625 181 l 1
 272.687089331 184.501500204 278.5883836 188.314349088 284.040589227 192.401842439 c 0
 307.353726392 204.767572505 310.291015236 193.755561531 310.291015625 170 c 0
 310.291015625 149 295.248046875 110 223.291015625 110 c 0
 166.291015625 110 126 145.346679688 126 225.309570312 c 0
 126 277.03515625 153.439453125 319.309570312 208.439453125 319.309570312 c 0
 229.627677162 319.309570312 242.512793812 319.170363373 252.509032836 318.982722542 c 1
342.990208938 285.755154531 m 1
 368.356940151 373.640112633 355.766264514 473.84375 445.291015625 473.84375 c 0
 494.875976562 473.84375 540.291015625 433.390625 540.291015625 285.84375 c 0
 540.291015625 135.928710938 494.87109375 107.84375 445.291015625 107.84375 c 0
 429.965129951 107.84375 418.272469218 112.394017436 409.356796186 118.971746989 c 1
 414.207195571 135.55888368 416.291015625 152.030586278 416.291015625 167 c 0
 416.291015625 216.567690488 407.44597424 275.963204737 342.990208938 285.755154531 c 1
EndSplineSet
EndChar

StartChar: si_MatraAe
Encoding: 64 3536 32
Width: 349
VWidth: 0
Flags: HW
HStem: 0 111<125.484 200.585>
VStem: 5 108<122.947 258.965> 213 96<121.962 179>
LayerCount: 2
Back
Fore
SplineSet
41 546 m 1
 41 447 l 1
 41 447 113 447 149 447 c 1
 71 341 5 280 5 179 c 0
 5 116 38 0 157 0 c 0
 279 0 309 101 309 179 c 1
 213 179 l 1
 213 123 184 111 161 111 c 0
 136 111 113 137 113 179 c 0
 113 255 159 295 276 451 c 1
 276 491 276 522 276 546 c 1
 221.852539062 546 144 546 41 546 c 1
EndSplineSet
EndChar

StartChar: si_MatraAae
Encoding: 65 3537 33
Width: 349
VWidth: 0
Flags: HW
HStem: 286 82<146 226>
VStem: 5 108<115.82 213.893> 213 96<123.171 179>
LayerCount: 2
Back
Fore
SplineSet
58.8193019997 286 m 1
 27.1250909317 251.825389973 5 208.100210142 5 157 c 0
 5 94 38 0 157 0 c 0
 279 0 309 101 309 179 c 1
 213 179 l 1
 213 93.5771484375 113 84.109375 113 157 c 0
 113 206 181 286 276 286 c 1
 276 326 276 361 276 385 c 1
 192 385 l 1
 276 451 l 1
 276 491 276 522 276 546 c 1
 221.852539062 546 144 546 41 546 c 1
 41 447 l 1
 41 447 77 447 113 447 c 1
 41 385 l 1
 41 286 l 1
 58.8193019997 286 l 1
EndSplineSet
EndChar

StartChar: si_MatraE
Encoding: 71 3545 39
Width: 458
VWidth: 0
Flags: HW
HStem: 0 112<187.59 319.13> 138 89.4404<268.62 335.93> 307.79 90.21<268.62 348.33> 467 112<188.81 324.7>
VStem: 23 112<171.471 400.164> 172 91.4756<231.865 303.75>
LayerCount: 2
Back
Fore
SplineSet
440 486 m 1
 391 540 361 579 250 579 c 0
 110.3828125 579 23 448.232421875 23 280 c 0
 23 110.229492188 110.3828125 0 250 0 c 0
 475 0 516 301 369 380 c 1
 368.913712223 379.58006615 l 1
 349.387131578 391.281839479 326.504378266 398 302 398 c 0
 230 398 172 340 172 268 c 0
 172 196 230 138 302 138 c 0
 310.392784151 138 318.595339991 138.788088715 326.537977057 140.294575682 c 1
 312.004290105 122.143970549 287.236460287 111.999999999 250 112 c 0
 172.770507812 112 135 184.11328125 135 280 c 0
 135 392.15625 172.770507812 467 250 467 c 0
 301 467 327 449 352 420 c 1
 440 486 l 1
263.475585938 267.615234375 m 0
 263.475585938 289.865234375 281.108398438 307.790039062 302.997070312 307.790039062 c 0
 324.885742188 307.790039062 342.518554688 289.865234375 342.518554688 267.615234375 c 0
 342.518554688 245.364257812 324.885742188 227.440429688 302.997070312 227.440429688 c 0
 281.108398438 227.440429688 263.475585938 245.364257812 263.475585938 267.615234375 c 0
EndSplineSet
EndChar

StartChar: zwnj
Encoding: 81 8204 49
Width: 233
VWidth: 0
Flags: W
VStem: 77 79<-10.75 780.75>
LayerCount: 2
Back
Fore
SplineSet
77 -10.75 m 257
 77 780.75 l 257
 156 780.75 l 257
 156 -10.75 l 257
 77 -10.75 l 257
EndSplineSet
Validated: 1
EndChar

StartChar: zwj
Encoding: 82 8205 50
Width: 452
VWidth: 0
Flags: W
VStem: 186.229 79<-10.5 561.358>
LayerCount: 2
Back
Fore
SplineSet
281.000976562 654.956054688 m 257
 375.45703125 562 l 257
 319.685546875 506.901367188 l 257
 265.228515625 561.358398438 l 257
 265.228515625 -10.5 l 257
 186.228515625 -10.5 l 257
 186.228515625 561.358398438 l 257
 131.771484375 506.901367188 l 257
 76 562 l 257
 170.456054688 654.956054688 l 257
 82.955078125 746.456054688 l 257
 138.771484375 801.598632812 l 257
 225.728515625 707.641601562 l 257
 319.685546875 803.598632812 l 261
 375.501953125 748.456054688 l 261
 281.000976562 654.956054688 l 257
EndSplineSet
Validated: 1
EndChar

StartChar: si_Aa
Encoding: 4 3462 54
Width: 797
VWidth: 0
Flags: HW
HStem: 285 89<388.26 438.306> 318 103.352<176.427 283.976> 498 98<197.359 275.09>
VStem: 18.9998 116<156.787 278.81> 284.885 99.1152<398.735 506.64> 388.26 3<285 374> 682.841 115<157.181 393.95>
LayerCount: 2
Back
Fore
SplineSet
797.840820312 277 m 0
 797.840820312 3.056640625 611 -32.2958984375 536 21 c 1
 581 115 l 1
 626 88 682.840820312 145 682.840820312 277 c 0
 682.840820312 393.890625 638.267578125 460.62109375 596.815429688 448.609375 c 1
 568.840820312 552 l 1
 654.853515625 581.90625 797.840820312 516.697265625 797.840820312 277 c 0
EndSplineSet
Refer: 6 3461 N 1 0 0 1 -0.00015625 0 2
EndChar

StartChar: si_Aae
Encoding: 6 3464 56
Width: 854
VWidth: 0
Flags: HW
HStem: 285 89<388.26 438.307> 286 82<717 797> 318 103.352<176.428 283.977> 498 98<197.359 275.091>
VStem: 19.0005 116<156.787 278.81> 284.885 99.1152<398.735 506.64> 388.26 3<285 374> 576 108<115.82 213.893> 784 96<123.171 179>
LayerCount: 2
Back
Fore
SplineSet
603.819335938 286 m 5
 572.125 251.825195312 550 208.100585938 550 157 c 4
 550 94 583 0 702 0 c 4
 824 0 854 101 854 179 c 5
 758 179 l 5
 758 93.5771484375 658 84.109375 658 157 c 4
 658 206 726 286 821 286 c 5
 821 326 821 361 821 385 c 5
 737 385 l 5
 821 451 l 5
 821 491 821 522 821 546 c 5
 766.852539062 546 689 546 586 546 c 5
 586 447 l 5
 586 447 622 447 658 447 c 5
 586 385 l 5
 586 286 l 5
 603.819335938 286 l 5
EndSplineSet
Refer: 6 3461 N 1 0 0 1 0.000487607 0 2
EndChar

StartChar: si_Ii
Encoding: 8 3466 57
Width: 484
VWidth: 0
Flags: HW
HStem: 0 111.425<183.177 311.22> 601 116<422.605 513.844> 673 116<119.605 210.844>
VStem: 18.9997 112.779<167.299 380.347> 107.225 116<685.381 776.619> 270.045 116<685.764 779> 358.07 114.017<165.828 384.99> 410.225 116<613.381 704.619>
LayerCount: 2
Back
Fore
SplineSet
247.25390625 440.705078125 m 0
 328.528320312 440.705078125 358.0703125 362.481445312 358.0703125 274.73828125 c 0
 358.0703125 185.564453125 328.528320312 111.424804688 247.25390625 111.424804688 c 0
 163.073242188 111.424804688 131.779296875 185.564453125 131.779296875 274.73828125 c 0
 131.779296875 362.481445312 163.073242188 440.705078125 247.25390625 440.705078125 c 0
410.224609375 659 m 0
 410.224609375 691 436.224609375 717 468.224609375 717 c 0
 500.224609375 717 526.224609375 691 526.224609375 659 c 0
 526.224609375 627 500.224609375 601 468.224609375 601 c 0
 436.224609375 601 410.224609375 627 410.224609375 659 c 0
107.224609375 731 m 0
 107.224609375 763 133.224609375 789 165.224609375 789 c 0
 197.224609375 789 223.224609375 763 223.224609375 731 c 0
 223.224609375 699 197.224609375 673 165.224609375 673 c 0
 133.224609375 673 107.224609375 699 107.224609375 731 c 0
284.418945312 549.307617188 m 1
 284.642578125 549.560546875 284.8515625 549.791992188 285.044921875 550 c 0
 390.043945312 663.000976562 386.044921875 714 386.044921875 779 c 1
 270.044921875 779 l 1
 270.044921875 720 264.759765625 681.7734375 134.044921875 552 c 0
 90.2861328125 508.555664062 58.044921875 447 58.044921875 447 c 1
 58.140625 446.955078125 l 1
 31.947265625 400.46875 19 341.48828125 19 276.064453125 c 0
 19 118.177734375 93.0419921875 0 245.224609375 0 c 0
 398.045898438 0 472.086914062 118.177734375 472.086914062 276.064453125 c 0
 472.086914062 418.498046875 410.72265625 530.39453125 284.418945312 549.307617188 c 1
EndSplineSet
EndChar

StartChar: si_Os
Encoding: 18 3476 65
Width: 572
VWidth: 0
Flags: HW
HStem: 0 115<141.887 207.796 345.481 412.217> 429 98<146.737 204.948> 446.864 79.1357<264.649 300.162> 639.885 115.115<182.77 330.935>
VStem: 18.9995 106.673<127.878 406.327> 183.706 88.2939<365.994 412.547> 228.391 95.9111<134.828 249.5> 302.142 73.8584<365.137 446.702> 439 114.516<145.55 486.614>
LayerCount: 2
Back
Fore
SplineSet
125.672851562 265.912109375 m 0
 125.672851562 202 130 115 169.515625 115 c 0
 216.215820312 115 228.390625 176.75 228.390625 249.5 c 1
 324.301757812 249.5 l 1
 324.301757812 176.75 337.64453125 115 380.634765625 115 c 0
 432.846679688 115 439 239.959960938 439 293 c 0
 439 522.796875 375.34765625 639.884765625 250.42578125 639.884765625 c 0
 209.322265625 639.884765625 169.237304688 618.959960938 152.181640625 576.85546875 c 1
 43.1494140625 613.029296875 l 1
 79.1337890625 707.868164062 163.705078125 755 250.42578125 755 c 0
 451.208984375 755 553.515625 599.055664062 553.515625 293 c 0
 553.515625 181.99609375 542.515625 0 384.759765625 0 c 0
 328.83984375 0 288.817382812 33.14453125 273.997070312 79.0302734375 c 1
 257.8515625 31.6025390625 214.6796875 0 162 0 c 0
 50 0 19 115 19 253 c 0
 19 389 63.287109375 527 167.287109375 527 c 0
 194.2265625 527 216.86328125 518.849609375 234.120117188 506.203125 c 1
 244.959960938 517.443359375 259.2265625 526 286 526 c 0
 346 526 376 469.645507812 376 412.094726562 c 0
 376 347.137695312 365 275 279 275 c 0
 191.426757812 275 178 346 183.706054688 412.546875 c 0
 183.361328125 422.934570312 180.1953125 429 169.287109375 429 c 0
 137.287109375 429 125.672851562 348 125.672851562 265.912109375 c 0
271.481445312 445.153320312 m 0
 271.770507812 442.765625 271.944335938 440.377929688 272 438 c 0
 269 399 267 364 285 364 c 0
 295.823242188 364 302.141601562 382.995117188 302.141601562 404.020507812 c 0
 302.141601562 425.854492188 299.166015625 446.864257812 282.774414062 446.864257812 c 0
 279.78125 446.864257812 275.619140625 446.573242188 271.481445312 445.153320312 c 0
EndSplineSet
EndChar

StartChar: si_Gha
Encoding: 24 3485 68
Width: 583
VWidth: 0
Flags: HW
HStem: 0 115<147.992 193.039 391.543 441.749> 180 78<270.385 314.197> 318 98<18.9995 59.8159 164.602 254.572 349.572 432.637> 497.563 98<160.092 252.378 342.945 436.077>
VStem: 34.3335 107<118.137 294.217> 189.291 81<115.027 179.993> 248.867 97.8984<390.083 538.899> 314.291 81<115.027 179.993> 442.436 93.4756<409.065 492.118> 456.773 107<126.884 294.106>
LayerCount: 2
Back
Fore
SplineSet
407.291015625 0 m 0
 340.81640625 0 308.291015625 54 308.291015625 94 c 0
 308.291015625 125 314.291015625 141.673828125 314.291015625 158 c 0
 314.291015625 171.092773438 309.291015625 180 292.291015625 180 c 0
 275.291015625 180 270.291015625 171.092773438 270.291015625 158 c 0
 270.291015625 141.673828125 276.291015625 125 276.291015625 94 c 0
 276.291015625 54 243.765625 0 177.291015625 0 c 0
 65.677734375 0 34.333984375 95.095703125 34.333984375 207 c 0
 34.333984375 248.30078125 45.81640625 294 59.81640625 319.563476562 c 1
 19 319.666992188 l 1
 19 416 l 1
 71.3857421875 416 l 1
 65.5048828125 431.74609375 62.765625 447.6328125 62.765625 463.099609375 c 0
 62.765625 533.6953125 110.765625 595.563476562 198.380859375 595.563476562 c 0
 235.206054688 595.563476562 270.751953125 582.599609375 297.81640625 557.108398438 c 1
 324.880859375 582.599609375 360.426757812 595.563476562 397.251953125 595.563476562 c 0
 483.811523438 595.563476562 535.911132812 533.700195312 535.911132812 457.970703125 c 0
 535.911132812 431.250976562 525.94921875 399.766601562 508.033203125 374.979492188 c 0
 510.38671875 372.764648438 512.649414062 370.512695312 514.81640625 368.23828125 c 0
 548.643554688 332.731445312 563.7734375 278.352539062 563.7734375 207 c 0
 563.7734375 95.095703125 518.4296875 0 407.291015625 0 c 0
346.763671875 428.619140625 m 0
 347.013671875 425.17578125 347.442382812 421.633789062 348.060546875 418 c 2
 348.840820312 416 l 1
 349.572265625 416 l 1
 413.81640625 416 l 2
 419.317382812 416 424.725585938 415.595703125 430.02734375 414.833984375 c 1
 436.98828125 424.732421875 442.435546875 441.8046875 442.435546875 452.727539062 c 0
 442.435546875 476.563476562 426.607421875 497.563476562 397.251953125 497.563476562 c 0
 369.649414062 497.563476562 347.942382812 475.041015625 346.565429688 439.48828125 c 0
 346.698242188 436.229492188 346.765625 432.921875 346.765625 429.563476562 c 0
 346.765625 429.249023438 346.763671875 428.934570312 346.763671875 428.619140625 c 0
249.064453125 439.427734375 m 0
 247.614257812 475.014648438 224.383789062 497.563476562 196.765625 497.563476562 c 0
 153.36328125 497.563476562 144.59375 446.533203125 167.982421875 416 c 1
 249.209960938 416 l 1
 247.572265625 418 l 2
 248.190429688 421.633789062 248.619140625 425.17578125 248.869140625 428.619140625 c 0
 248.869140625 428.934570312 248.8671875 429.249023438 248.8671875 429.563476562 c 0
 248.8671875 432.900390625 248.93359375 436.188476562 249.064453125 439.427734375 c 0
292.291015625 258 m 0
 363.291015625 258 395.291015625 236.994140625 395.291015625 189 c 0
 395.291015625 152.00390625 379.291015625 115 407.291015625 115 c 0
 442.584960938 115 456.7734375 157.264648438 456.7734375 207 c 0
 456.7734375 258.725585938 436.81640625 318 396.53515625 318 c 2
 201.572265625 318 l 2
 160.81640625 318 141.333984375 258.08984375 141.333984375 207 c 0
 141.333984375 157.264648438 141.997070312 115 177.291015625 115 c 0
 205.291015625 115 189.291015625 152.00390625 189.291015625 189 c 0
 189.291015625 236.994140625 221.291015625 258 292.291015625 258 c 0
EndSplineSet
EndChar

StartChar: si_Cha
Encoding: 28 3489 71
Width: 627
VWidth: 0
Flags: HW
HStem: 191.437 86.5068<333.161 423.6> 318.437 98<154.447 233.201 334.238 415.205> 318.437 1<258 347> 496 98<146.697 239.656>
VStem: 19 107<169.066 290.298> 46.8623 93.4756<405.445 490.554> 233.533 97.6289<397.973 504.64> 236.277 78.7227<396.034 467.613> 441.439 90.0361<394.69 497.931> 491 116<710.201 803.437>
LayerCount: 2
Back
Fore
SplineSet
283.719726562 556.696289062 m 1
 308.208007812 579.204101562 339.421875 591.641601562 372.176757812 593.6953125 c 1
 486.1875 709.754882812 491 747.137695312 491 803.436523438 c 1
 607 803.436523438 l 1
 607 738.436523438 610.999023438 687.4375 506 574.436523438 c 0
 502.955078125 571.159179688 496.131835938 562.19921875 488.051757812 551.235351562 c 1
 515.2890625 521.163085938 531.475585938 474.453125 531.475585938 408.6796875 c 0
 531.475585938 379.991210938 528.456054688 354.198242188 522.861328125 331.26953125 c 1
 539.91796875 300.682617188 548.439453125 263.907226562 548.439453125 224.436523438 c 0
 548.439453125 -90.5634765625 19 -90.5595703125 19 224.436523438 c 0
 19 283.385742188 38.0078125 336.32421875 76.0693359375 371.608398438 c 1
 57.3173828125 396.659179688 46.8623046875 429.033203125 46.8623046875 456.407226562 c 0
 46.8623046875 532.13671875 98.9619140625 594 185.521484375 594 c 0
 221.7890625 594 256.814453125 581.426757812 283.719726562 556.696289062 c 1
234.657226562 451.182617188 m 0
 229.053710938 478.982421875 209.514648438 496 185.521484375 496 c 0
 156.166015625 496 140.337890625 475 140.337890625 451.1640625 c 0
 140.337890625 439.529296875 146.518554688 420.916992188 154.125976562 411.4296875 c 1
 169.000976562 414.704101562 185.10546875 416.436523438 202.439453125 416.436523438 c 0
 221.921875 416.436523438 233.201171875 416.436523438 233.201171875 416.436523438 c 1
 233.831054688 416.436523438 l 2
 233.633789062 420.384765625 233.533203125 424.243164062 233.533203125 428 c 0
 233.533203125 436.010742188 233.916992188 443.73828125 234.657226562 451.182617188 c 0
412.083984375 299.979492188 m 1
 398.862304688 311.567382812 381.169921875 318.436523438 359 318.436523438 c 2
 347 318.436523438 l 1
 324 312.436523438 328 277.943359375 360.017578125 277.943359375 c 0
 379.439453125 277.943359375 397.965820312 283.443359375 412.083984375 299.979492188 c 1
440.905273438 213.245117188 m 1
 415.532226562 198.66015625 386.259765625 191.436523438 355 191.436523438 c 0
 260.700195312 191.436523438 231.430664062 273.21875 257.413085938 318.436523438 c 1
 208.439453125 318.436523438 l 2
 153.439453125 318.436523438 126 276.162109375 126 224.436523438 c 0
 126 68.1953125 426.502929688 65.0234375 440.905273438 213.245117188 c 1
332.7265625 416.436523438 m 1
 334.23828125 416.436523438 l 1
 334.23828125 416.436523438 339.95703125 416.436523438 365 416.436523438 c 0
 392.408203125 416.436523438 416.740234375 412.10546875 437.999023438 404.197265625 c 1
 437.80859375 474.590820312 411.168945312 496 381.91796875 496 c 0
 353.391601562 496 331.162109375 471.944335938 331.162109375 434.311523438 c 0
 331.162109375 428.6484375 331.665039062 422.678710938 332.7265625 416.436523438 c 1
EndSplineSet
EndChar

StartChar: si_Ja
Encoding: 29 3490 72
Width: 613
VWidth: 0
Flags: HW
HStem: 318.437 98<154.447 233.201 334.238 412.993> 496 98<146.697 239.828>
VStem: 19 107<169.066 290.298> 46.8623 93.4756<405.445 490.554> 233.533 100.373<367.946 537.336> 427.102 93.4756<405.445 503.174> 441.439 107<169.065 290.298> 477 116<710.201 803.437>
LayerCount: 2
Back
Fore
SplineSet
359 318.436523438 m 0
 294.012695312 318.436523438 273.426757812 318.436523438 208.439453125 318.436523438 c 0
 153.439453125 318.436523438 126 276.162109375 126 224.436523438 c 0
 126 64.359375 441.439453125 64.9599609375 441.439453125 224.436523438 c 0
 441.439453125 276.162109375 414 318.436523438 359 318.436523438 c 0
283.719726562 556.696289062 m 1
 304.23828125 575.555664062 329.478515625 587.344726562 356.389648438 591.879882812 c 1
 472.13671875 709.366210938 477 746.844726562 477 803.436523438 c 1
 593 803.436523438 l 1
 593 738.436523438 596.999023438 687.4375 492 574.436523438 c 0
 489.623046875 571.877929688 484.942382812 565.85546875 479.158203125 558.119140625 c 1
 505.891601562 532.913085938 520.577148438 496.614257812 520.577148438 456.407226562 c 0
 520.577148438 429.033203125 510.123046875 396.659179688 491.370117188 371.608398438 c 1
 529.432617188 336.32421875 548.439453125 283.385742188 548.439453125 224.436523438 c 0
 548.439453125 -90.5634765625 19 -90.5595703125 19 224.436523438 c 0
 19 283.385742188 38.0078125 336.32421875 76.0693359375 371.608398438 c 1
 57.3173828125 396.659179688 46.8623046875 429.033203125 46.8623046875 456.407226562 c 0
 46.8623046875 532.13671875 98.9619140625 594 185.521484375 594 c 0
 221.7890625 594 256.814453125 581.426757812 283.719726562 556.696289062 c 1
332.783203125 451.182617188 m 0
 333.5234375 443.73828125 333.90625 436.010742188 333.90625 428 c 0
 333.90625 424.243164062 333.806640625 420.384765625 333.609375 416.436523438 c 2
 334.23828125 416.436523438 l 1
 334.23828125 416.436523438 339.95703125 416.436523438 365 416.436523438 c 0
 382.334960938 416.436523438 398.439453125 414.704101562 413.314453125 411.4296875 c 1
 420.921875 420.916992188 427.1015625 439.529296875 427.1015625 451.1640625 c 0
 427.1015625 475 411.2734375 496 381.91796875 496 c 0
 357.92578125 496 338.38671875 478.982421875 332.783203125 451.182617188 c 0
234.657226562 451.182617188 m 0
 229.053710938 478.982421875 209.514648438 496 185.521484375 496 c 0
 156.166015625 496 140.337890625 475 140.337890625 451.1640625 c 0
 140.337890625 439.529296875 146.518554688 420.916992188 154.125976562 411.4296875 c 1
 169.000976562 414.704101562 185.10546875 416.436523438 202.439453125 416.436523438 c 0
 221.921875 416.436523438 233.201171875 416.436523438 233.201171875 416.436523438 c 1
 233.831054688 416.436523438 l 2
 233.633789062 420.384765625 233.533203125 424.243164062 233.533203125 428 c 0
 233.533203125 436.010742188 233.916992188 443.73828125 234.657226562 451.182617188 c 0
EndSplineSet
EndChar

StartChar: si_Jha
Encoding: 30 3491 73
Width: 1036
VWidth: 0
Flags: HW
HStem: 0 109<131.273 186.04 284.032 343.929 821.559 876.299> 357.212 117.503<650.211 706.438> 482 112<367.657 505.031> 494.101 98<116.449 193.781> 639.885 115.115<645.141 793.307>
VStem: 19.0001 92.5752<402.907 489.383> 26.088 99<115 241.573> 190.088 90<111.297 227> 205.371 97.6289<410.468 502.741> 353.088 107<112.847 312.772> 698.762 95.9111<136.57 249.5> 901.371 115<133.329 486.614>
LayerCount: 2
Back
Fore
SplineSet
1016.37109375 293 m 0
 1016.37109375 181.99609375 1010.88671875 0 853.130859375 0 c 0
 797.2109375 0 759.188476562 33.14453125 744.368164062 79.0302734375 c 1
 728.22265625 31.6025390625 688.810546875 0 636.130859375 0 c 0
 468.130859375 0 475.536132812 258 501.416015625 341 c 0
 509.981445312 368.47265625 522.474609375 392.666992188 537.849609375 412.65625 c 1
 522.670898438 462.255859375 477.91796875 482 444.087890625 482 c 0
 413.547851562 482 378.056640625 474.810546875 334.595703125 434.322265625 c 1
 378.807617188 429.651367188 460.087890625 386.413085938 460.087890625 210 c 0
 460.087890625 112.106445312 425.130859375 0 319.130859375 0 c 0
 280.130859375 0 245.130859375 29 235.715820312 52 c 1
 227.130859375 31 196.130859375 0 152.087890625 0 c 0
 47.3193359375 0 31.66796875 96.1904296875 53.74609375 143.287109375 c 1
 37.8623046875 126.889648438 27.59375 116.366210938 26.087890625 115 c 2
 23.087890625 249 l 1
 74.0205078125 301.453125 77.0234375 302.512695312 101.866210938 328.96875 c 1
 59.15625 348.068359375 19 393.70703125 19 459.63671875 c 0
 19 530.232421875 67 592.100585938 154.615234375 592.100585938 c 0
 203.295898438 592.100585938 249.740234375 569.446289062 277.313476562 525.145507812 c 1
 320.702148438 564.512695312 374.271484375 594 444.087890625 594 c 0
 538.963867188 594 593.743164062 546.826171875 634.916015625 473.392578125 c 1
 640.940429688 474.267578125 647.048828125 474.71484375 653.219726562 474.71484375 c 0
 680.986328125 474.71484375 710.017578125 465.66796875 738.391601562 445.862304688 c 1
 700.526367188 345.604492188 l 1
 686.678710938 353.59375 674.008789062 357.211914062 662.663085938 357.211914062 c 0
 635.124023438 357.211914062 615.390625 335.891601562 605.575195312 304 c 0
 593.579101562 265.024414062 588.131835938 124 636.130859375 115 c 0
 682.03125 106.393554688 698.76171875 176.75 698.76171875 249.5 c 1
 794.672851562 249.5 l 1
 794.672851562 176.75 810.140625 115 853.130859375 115 c 0
 901.130859375 115 901.37109375 239.958007812 901.37109375 293 c 0
 901.37109375 522.796875 837.71875 639.884765625 712.796875 639.884765625 c 0
 671.693359375 639.884765625 631.608398438 618.959960938 614.552734375 576.85546875 c 1
 505.520507812 613.029296875 l 1
 541.504882812 707.868164062 626.076171875 755 712.796875 755 c 0
 913.580078125 755 1015.88671875 599.055664062 1016.37109375 293 c 0
259.053710938 356.388671875 m 1
 224.5546875 320.510742188 180.947265625 275.176757812 140.803710938 233.5 c 1
 126.9375 212.4296875 125.087890625 184.073242188 125.087890625 156 c 0
 125.087890625 138.591796875 131.80859375 109 155.087890625 109 c 0
 173.745117188 109 190.087890625 119 190.087890625 160 c 0
 190.087890625 176.21875 190.087890625 202.995117188 190.087890625 227 c 1
 280.087890625 227 l 1
 280.087890625 202.2265625 280.087890625 176.891601562 280.087890625 160 c 0
 280.087890625 122 292.087890625 109 318.087890625 109 c 0
 353.087890625 109 353.087890625 165.987304688 353.087890625 210 c 0
 353.087890625 318.396484375 304.971679688 358.708984375 259.053710938 356.388671875 c 1
142.7265625 236.267578125 m 2
 155.087890625 249 l 2
 150.231445312 245.216796875 146.151367188 240.94140625 142.7265625 236.267578125 c 2
156.544921875 389.5234375 m 1
 170.831054688 405.965820312 188.7109375 426.733398438 204.423828125 445.03515625 c 1
 199.732421875 475.33984375 178.192382812 494.100585938 153 494.100585938 c 0
 125.166015625 494.100585938 111.575195312 473.11328125 111.575195312 450.00390625 c 0
 111.575195312 415.546875 131.772460938 398.157226562 156.544921875 389.5234375 c 1
EndSplineSet
EndChar

StartChar: si_Nya
Encoding: 31 3492 74
Width: 1132
VWidth: 0
Flags: HW
HStem: -202.407 105.407<922.321 1016.7> 0 109<327.61 382.377 480.369 540.266 803.202 948.541> 0 93.4746<126.348 198.502> 318 103.352<831.797 939.346> 482 112<563.994 712.398> 494.101 98<312.786 390.118 849.502 933.236> 509.437 84.5635<137.263 207.942>
VStem: 19.0001 94<103.242 483.693> 215.337 92.5752<402.907 494.383> 215.337 67.6631<459.217 530.232> 222.425 99<115 241.573> 386.425 90<111.297 227> 401.708 97.6289<410.468 502.741> 549.425 107<112.847 312.772> 674.37 116<155.986 278.81> 941.741 97.6289<419.056 487.162>
LayerCount: 2
Back
Fore
SplineSet
1035.37011719 -54.5634765625 m 1
 1112.37011719 -106.563476562 l 1
 1066.45898438 -175.430664062 1011.703125 -202.407226562 961.424804688 -202.407226562 c 0
 841.545898438 -202.407226562 772.357421875 -87.7158203125 824.033203125 10.544921875 c 1
 736.923828125 38.712890625 674.370117188 120.197265625 674.370117188 217 c 0
 674.370117188 284.255859375 708.052734375 343.310546875 760.397460938 380.4140625 c 1
 758.455078125 455.334960938 681.169921875 482 640.424804688 482 c 0
 609.884765625 482 574.393554688 474.810546875 530.932617188 434.322265625 c 1
 575.14453125 429.651367188 656.424804688 386.413085938 656.424804688 210 c 0
 656.424804688 112.106445312 621.467773438 0 515.467773438 0 c 0
 476.467773438 0 441.467773438 29 432.052734375 52 c 1
 423.467773438 31 392.467773438 0 348.424804688 0 c 0
 243.65625 0 228.004882812 96.1904296875 250.083007812 143.287109375 c 1
 234.19921875 126.889648438 223.930664062 116.366210938 222.424804688 115 c 2
 219.424804688 249 l 1
 270.357421875 301.453125 273.360351562 302.512695312 298.203125 328.96875 c 1
 255.493164062 348.068359375 215.336914062 393.70703125 215.336914062 459.63671875 c 0
 215.336914062 492.216796875 194.211914062 509.436523438 172.424804688 509.436523438 c 0
 134.424804688 509.436523438 113 469 113 290.216796875 c 0
 113 135.724609375 119.424804688 93.474609375 156.424804688 93.474609375 c 0
 171.424804688 93.474609375 180.424804688 99 189.424804688 107 c 1
 233.424804688 26 l 1
 211.424804688 14 184.424804688 0 157.424804688 0 c 0
 55.4248046875 0 19 90.7109375 19 290.216796875 c 0
 19 555 90.4326171875 594 165.424804688 594 c 0
 197.774414062 594 228.520507812 578.541992188 250.453125 552.515625 c 1
 273.40234375 576.70703125 307.249023438 592.100585938 350.952148438 592.100585938 c 0
 399.6328125 592.100585938 446.077148438 569.446289062 473.650390625 525.145507812 c 1
 517.0390625 564.512695312 570.608398438 594 640.424804688 594 c 0
 700.217773438 594 744.0859375 575.263671875 778.658203125 543.025390625 c 1
 802.2421875 575.228515625 840.829101562 596 890.985351562 596 c 0
 967.975585938 596 1039.37011719 539.3359375 1039.37011719 430 c 0
 1039.37011719 398.735351562 1032.37011719 357 1020.37011719 318 c 1
 1020.37011719 318 939.901367188 318 891.370117188 318 c 0
 835.370117188 318 790.370117188 273 790.370117188 217 c 0
 790.370117188 161 835.370117188 116 891.370117188 116 c 0
 926.663085938 116 957.939453125 131.385742188 978.032226562 155.436523438 c 1
 1064.37011719 93.0419921875 l 1
 1031.79785156 46.962890625 984.502929688 14.365234375 930.146484375 3.7412109375 c 1
 901.109375 -30.1396484375 909.499023438 -97 961.424804688 -97 c 0
 986.055664062 -97 1012.87890625 -85.0556640625 1035.37011719 -54.5634765625 c 1
857.1015625 418.862304688 m 2
 868.2578125 420.500976562 879.703125 421.3515625 891.370117188 421.3515625 c 0
 910.205078125 421.3515625 922.370117188 420 940.176757812 418.436523438 c 1
 941.23828125 424.678710938 941.741210938 430.6484375 941.741210938 436.311523438 c 0
 941.741210938 473.944335938 919.51171875 498 890.985351562 498 c 0
 861.629882812 498 845.801757812 477 845.801757812 453.1640625 c 0
 845.801757812 441.108398438 849.38671875 428.124023438 857.370117188 419 c 1
 857.1015625 418.862304688 l 2
455.390625 356.388671875 m 1
 420.891601562 320.510742188 377.284179688 275.176757812 337.140625 233.5 c 1
 323.274414062 212.4296875 321.424804688 184.073242188 321.424804688 156 c 0
 321.424804688 138.591796875 328.145507812 109 351.424804688 109 c 0
 370.08203125 109 386.424804688 119 386.424804688 160 c 0
 386.424804688 176.21875 386.424804688 202.995117188 386.424804688 227 c 1
 476.424804688 227 l 1
 476.424804688 202.2265625 476.424804688 176.891601562 476.424804688 160 c 0
 476.424804688 122 488.424804688 109 514.424804688 109 c 0
 549.424804688 109 549.424804688 165.987304688 549.424804688 210 c 0
 549.424804688 318.396484375 501.30859375 358.708984375 455.390625 356.388671875 c 1
339.063476562 236.267578125 m 2
 351.424804688 249 l 2
 346.568359375 245.216796875 342.48828125 240.94140625 339.063476562 236.267578125 c 2
352.881835938 389.5234375 m 1
 367.16796875 405.965820312 385.047851562 426.733398438 400.760742188 445.03515625 c 1
 396.069335938 475.33984375 374.529296875 494.100585938 349.336914062 494.100585938 c 0
 321.502929688 494.100585938 307.912109375 473.11328125 307.912109375 450.00390625 c 0
 307.912109375 415.546875 328.109375 398.157226562 352.881835938 389.5234375 c 1
EndSplineSet
EndChar

StartChar: si_Nndda
Encoding: 39 3500 77
Width: 685
VWidth: 0
Flags: HW
HStem: 0 115<282.294 348.294 489.971 554.053> 306 85<159 190.244 321.097 391.704> 445 84.5635<144.389 219.48 310.813 380.787> 639.885 115.115<318.254 466.42>
VStem: 19 94<114.805 404.979> 164.762 107<120.903 281.556> 214.581 92.5752<390.54 454.409> 215.337 67.6631<403.42 436> 371.875 95.9111<138.375 249.5> 574.484 115<133.329 486.614>
LayerCount: 2
Back
Fore
SplineSet
574.484375 293 m 0
 574.484375 522.796875 510.83203125 639.884765625 385.91015625 639.884765625 c 0
 344.806640625 639.884765625 304.721679688 618.959960938 287.666015625 576.85546875 c 1
 178.633789062 613.029296875 l 1
 214.618164062 707.868164062 299.189453125 755 385.91015625 755 c 0
 586.693359375 755 689 599.055664062 689.484375 293 c 0
 689.484375 181.99609375 684 0 526.244140625 0 c 0
 470.32421875 0 432.301757812 33.14453125 417.481445312 79.0302734375 c 1
 401.3359375 31.6025390625 361.923828125 0 309.244140625 0 c 0
 279.34071548 0 255.246609527 7.03241259369 235.955614864 18.9803181578 c 1
 111.977808232 -35.9830721195 19.000000275 34.9495350664 19 234 c 0
 19 462 99.0078125 529.563476562 174 529.563476562 c 0
 203.827408629 529.563476562 230.288052256 518.342523905 249.667109702 497.877105983 c 1
 271.98399198 518.264650329 303.667041064 529.563476562 340.948242188 529.563476562 c 0
 417.934570312 529.563476562 489.333007812 472.899414062 489.333007812 363.563476562 c 0
 489.333007812 349 486.139648438 323 482.083984375 304 c 1
 332 304.436523438 l 2
 291.244140625 304.436523438 271.76171875 245.162109375 271.76171875 193.436523438 c 0
 271.76171875 157.760742188 279.203125 115 309.244140625 115 c 0
 355.944335938 115 371.875 176.75 371.875 249.5 c 1
 467.786132812 249.5 l 1
 467.786132812 176.75 483.25390625 115 526.244140625 115 c 0
 574.244140625 115 574.484375 239.958007812 574.484375 293 c 0
308.638500558 389.447970283 m 1
 393.021921105 388.572757181 l 1
 391.609222115 416.532547677 374.755338565 442 340.948242188 442 c 0
 316.1484375 442 307.15625 424.133789062 307.15625 402.787109375 c 0
 307.15625 398.374401911 307.651848006 393.884220424 308.638500558 389.447970283 c 1
216.436065887 390.404281113 m 1
 215.18549503 397.79667002 214.581054688 405.154529102 214.581054688 412.419921875 c 0
 214.581054688 412.864588834 214.586962 413.308218925 214.586962 413.750808072 c 0
 210.808879237 437.95177577 193.280496568 445 174 445 c 0
 144.487304688 445 113 396.766601562 113 234 c 0
 113 110.075678685 146.417348611 90.3348559825 178.173457391 98.7739235974 c 1
 168.365130175 128.874150608 164.76171875 162.252750188 164.76171875 193.436523438 c 0
 164.76171875 234.737304688 176.244140625 280.436523438 190.244140625 306 c 1
 159 306 l 1
 159 391 l 1
 216.436065887 390.404281113 l 1
EndSplineSet
EndChar

StartChar: si_Ta
Encoding: 40 3501 78
Width: 697
VWidth: 0
Flags: HW
LayerCount: 2
Back
Fore
SplineSet
255.087890625 109 m 0
 332.497070312 109 363.087890625 163 363.087890625 232 c 0
 363.087890625 312.381338585 303.567571248 347.893513332 251.998153506 349.051519723 c 1
 225.227275765 321.21181207 193.798753592 288.539596297 163.030333844 256.581041429 c 1
 162.263554496 200.491464901 155.610672918 108.999999991 255.087890625 109 c 0
451.861498774 121.377047415 m 1
 461.098558946 113.611641289 473.656366475 108 490.715820312 108 c 0
 533.818359375 108 577.087890625 137.340820312 577.087890625 279 c 0
 577.087890625 426.546875 493.672851562 482 444.087890625 482 c 0
 413.629417295 482 378.243086155 474.85201603 334.944770211 434.648091409 c 1
 388.461448382 417.874397775 470.087890625 367.351100508 470.087890625 231 c 0
 470.087890625 188.079866938 463.635781012 151.687657114 451.861498774 121.377047415 c 1
391.20203991 39.7763423473 m 1
 354.708246612 12.6321224198 307.750379549 2.19086901398e-14 255.087890625 0 c 0
 67.202156222 0 68.5152734248 117.33967239 78.5817336877 168.970929188 c 1
 49.0033311172 138.343669553 28.2777215948 116.987054784 26.087890625 115 c 2
 23.087890625 249 l 1
 74.0204410238 301.452925038 77.023545413 302.512481546 101.866214996 328.968769334 c 1
 59.1562818148 348.067984137 19.0000000083 393.706924703 19 459.63671875 c 0
 19 530.232421875 67 592.100585938 154.615234375 592.100585938 c 0
 203.296325808 592.100585938 249.740221443 569.445952602 277.313095305 525.145903786 c 1
 320.702611794 564.513179506 374.271331277 594 444.087890625 594 c 0
 551.086914062 594 688.087890625 513.375 688.087890625 279 c 0
 688.087890625 56.42578125 594.315429688 0 490.715820312 0 c 0
 445.447670063 0 412.44192575 17.7867911785 391.20203991 39.7763423473 c 1
204.424300028 445.035599968 m 1
 199.732682247 475.339997533 178.191905614 494.100585965 153 494.100585938 c 0
 125.166015625 494.100585938 111.575195312 473.11328125 111.575195312 450.00390625 c 0
 111.575195312 415.547009314 131.772508717 398.156795112 156.544597861 389.523376627 c 1
 170.831313803 405.965833178 188.710564034 426.733755784 204.424300028 445.035599968 c 1
EndSplineSet
EndChar

StartChar: si_Tha
Encoding: 41 3502 79
Width: 511
VWidth: 0
Flags: HW
HStem: 0 115<179.425 326.219>
VStem: 19 110<167.256 334.149> 395.146 115<199.266 495.663>
LayerCount: 2
Back
Fore
SplineSet
510.145507812 354 m 0
 510.145507812 118 429.145507812 0 249.145507812 0 c 0
 71.1455078125 0 19 136.287109375 19 252.395507812 c 0
 19 421.909179688 149.729492188 528.416992188 268.865234375 445.2578125 c 1
 231 345 l 1
 167.700195312 381.518554688 129 326.717773438 129 252.395507812 c 0
 129 189.243164062 156.225585938 115 249.145507812 115 c 0
 353.59765625 115 395.145507812 195.017578125 395.145507812 354 c 0
 395.145507812 392.682600066 393.015271803 429.126345457 388.590762067 463.177761776 c 1
 388.44288088 463.117736369 388.294463183 463.058481456 388.145507812 463 c 0
 310.525390625 465.250976562 212.26171875 527 212.26171875 613.133789062 c 0
 212.26171875 688.51171875 285.053710938 699.581054688 237.145507812 735 c 1
 309.145507812 819 l 1
 447.145507812 728 510.145507812 569.741210938 510.145507812 354 c 0
323.008874717 653.494609293 m 1
 282.976094302 635.04038853 288.692560232 567.376999854 367.836242745 559.371126172 c 1
 356.611639269 594.585658411 341.76674943 626.051436116 323.008874717 653.494609293 c 1
EndSplineSet
EndChar

StartChar: si_Dha
Encoding: 43 3504 80
Width: 561
VWidth: 0
Flags: HW
HStem: 0 115<348.513 412.595> 357.212 117.503<153.246 238.093> 639.885 115.115<176.796 324.962>
VStem: 230.417 95.9111<136.57 249.5> 433.026 115<133.329 486.614>
LayerCount: 2
Back
Fore
SplineSet
548.026367188 293 m 0
 548.026367188 181.99609375 542.541992188 0 384.786132812 0 c 0
 328.866210938 0 290.84375 33.14453125 276.0234375 79.0302734375 c 1
 259.877929688 31.6025390625 220.465820312 0 167.786132812 0 c 0
 -0.2138671875 0 7.1923828125 258 33.0712890625 341 c 0
 58.376953125 422.157226562 117.951171875 474.71484375 184.875 474.71484375 c 0
 212.641601562 474.71484375 241.673828125 465.66796875 270.046875 445.862304688 c 1
 232.181640625 345.604492188 l 1
 218.334960938 353.59375 205.6640625 357.211914062 194.318359375 357.211914062 c 0
 166.779296875 357.211914062 147.045898438 335.891601562 137.23046875 304 c 0
 125.235351562 265.024414062 119.787109375 124 167.786132812 115 c 0
 213.686523438 106.393554688 230.416992188 176.75 230.416992188 249.5 c 1
 326.328125 249.5 l 1
 326.328125 176.75 341.795898438 115 384.786132812 115 c 0
 432.786132812 115 433.026367188 239.958007812 433.026367188 293 c 0
 433.026367188 522.796875 369.374023438 639.884765625 244.452148438 639.884765625 c 0
 203.348632812 639.884765625 163.263671875 618.959960938 146.208007812 576.85546875 c 1
 37.17578125 613.029296875 l 1
 73.16015625 707.868164062 157.731445312 755 244.452148438 755 c 0
 445.235351562 755 547.541992188 599.055664062 548.026367188 293 c 0
EndSplineSet
EndChar

StartChar: si_Na
Encoding: 44 3505 81
Width: 723
VWidth: 0
Flags: HW
LayerCount: 2
Back
Fore
SplineSet
470.0390625 482 m 0
 436.845703125 482 386.0390625 479 349.0390625 423 c 0
 348.289527988 421.865574069 347.544064918 420.714637136 346.802350652 419.547812915 c 1
 388.095458264 416.234673898 486.0390625 397.075040126 486.0390625 231 c 0
 486.0390625 192.544381254 479.788787399 159.329260108 468.60927248 131.033606571 c 1
 478.106543835 118.7220453 493.086167424 108 516.666992188 108 c 0
 559.76953125 108 603.0390625 137.340820312 603.0390625 279 c 0
 603.0390625 426.546875 519.624023438 482 470.0390625 482 c 0
22.0390625 286 m 1
 118.0390625 279 l 1
 117.407845607 272.979161945 116.94637607 267.142216858 116.649731519 261.485501582 c 1
 142.012414537 258.826966841 152.698908019 278.726974769 169.901367188 304 c 0
 170.986677948 305.594387954 172.064918036 307.224704133 173.13697268 308.889483623 c 1
 94.8056208606 333.410596672 44.951171875 390.845774027 44.951171875 459.63671875 c 0
 44.951171875 530.232421875 92.951171875 592.100585938 180.56640625 592.100585938 c 0
 226.189300405 592.100585938 269.847255681 572.202922154 297.84849784 533.238310443 c 1
 340.9310734 574.033356285 402.062214742 594 470.0390625 594 c 0
 577.038085938 594 714.0390625 513.375 714.0390625 279 c 0
 714.0390625 56.42578125 620.266601562 0 516.666992188 0 c 0
 464.938952531 0 429.222789386 23.225450647 408.777601067 49.4075310671 c 1
 366.365791143 15.6084672441 310.577799289 2.36850469792e-14 252.0390625 0 c 0
 120.0390625 0 -1.9609375 97 22.0390625 286 c 1
300.343118848 327.148412066 m 1
 284.020124335 292.269008688 266.064783888 256.242426159 242.891601562 226 c 0
 211.798262159 185.421404678 164.266325333 162.450385415 132.998768808 167.861334017 c 1
 155.29922577 126.184824196 198.252188682 109 252.0390625 109 c 0
 329.448242188 109 379.0390625 163 379.0390625 232 c 0
 379.0390625 308.800111193 346.438151773 326.249846447 300.343118848 327.148412066 c 1
213.368807083 387.226386493 m 1
 219.079118034 399.672989414 224.940893002 412.572631198 231.092700594 425.696002872 c 0
 231.246822046 427.979379816 231.322265741 430.218743909 231.322265625 432.412109375 c 0
 231.322265625 470.044921875 207.477539062 494.100585938 178.951171875 494.100585938 c 0
 151.1171875 494.100585938 137.526367188 473.11328125 137.526367188 450.00390625 c 0
 137.526367188 417.471268759 174.947055535 392.715591018 213.368807083 387.226386493 c 1
EndSplineSet
EndChar

StartChar: si_Ba
Encoding: 48 3510 83
Width: 563
VWidth: 0
Flags: HW
HStem: 0 115<327.132 397.177> 0 89.4404<86.5625 225.062> 169.79 90.21<134.616 203.934> 376.433 112.441<156.507 247.251> 639.885 115.115<180.01 328.175>
VStem: 19 298.483<110.879 326.945> 19 110.476<93.1821 284.436> 38 91<93 283.744> 208.587 89.4131<87.4053 202> 256.125 112<254.569 367.161> 436.24 114.516<163.043 486.614>
LayerCount: 2
Back
Fore
SplineSet
129.475585938 129.615234375 m 0
 129.475585938 151.865234375 147.108398438 169.790039062 168.997070312 169.790039062 c 0
 190.885742188 169.790039062 208.518554688 151.865234375 208.518554688 129.615234375 c 0
 208.518554688 107.364257812 190.885742188 89.4404296875 168.997070312 89.4404296875 c 0
 147.108398438 89.4404296875 129.475585938 107.364257812 129.475585938 129.615234375 c 0
168 0 m 0
 202.054133244 4.14512174585e-15 232.976403857 12.9748594669 256.111329538 34.269096098 c 1
 279.369882096 13.0644967323 361.125 0 361.125 0 c 0
 518.880859375 0 550.755859375 181.99609375 550.755859375 293 c 0
 550.755859375 599.055664062 448.44921875 755 247.666015625 755 c 0
 160.9453125 755 76.3740234375 707.868164062 40.3896484375 613.029296875 c 1
 149.421875 576.85546875 l 1
 166.477539062 618.959960938 206.5625 639.884765625 247.666015625 639.884765625 c 0
 372.587890625 639.884765625 436.240234375 522.796875 436.240234375 293 c 0
 436.240234375 190 409.211914062 115 357 115 c 0
 330.727539062 115 317.483398438 142.7578125 317.483398438 177 c 0
 317.483398438 228 368.125 251 368.125 324 c 0
 368.125 430 306.69140625 488.874023438 199.185546875 488.874023438 c 0
 95 488.874023438 19 425.889648438 19 220 c 0
 19 79 63 0 168 0 c 0
 205.343225137 0 230.049173885 14.1781181961 251.643156733 38.5708120192 c 1024
229.244887186 244.786310257 m 1
 211.013821624 254.500548566 190.170637709 260 168 260 c 0
 154.734877787 260 141.944965555 258.031272935 129.905425618 254.368981119 c 1
 135.112831708 346.937446797 162.268595939 376.432617188 198 376.432617188 c 0
 240.69140625 376.432617188 256.125 354 256.125 324 c 0
 256.125 291.37555568 242.070175173 268.507693059 229.244887186 244.786310257 c 1
EndSplineSet
EndChar

StartChar: si_Bha
Encoding: 49 3511 84
Width: 684
VWidth: 0
Flags: HW
HStem: 0 110<172.156 312.985 418.428 526.941> 319.667 96.333<165.874 254.572> 473.844 110<416.379 519.449> 496.873 98<169.941 247.396>
VStem: 34.334 107<140.305 294.148> 333 106<159.347 225.178> 563 110<155.517 418.334>
LayerCount: 2
Back
Fore
SplineSet
468 0 m 0
 574.999023438 0 673 51.46875 673 285.84375 c 0
 673 520.21875 574.999023438 583.84375 468 583.84375 c 0
 395.907259327 583.84375 356.015241716 560.44791215 332.252104288 525.750579685 c 1
 304.858114382 571.479220161 257.699387966 594.873046875 208.23046875 594.873046875 c 0
 120.615234375 594.873046875 72.615234375 533.004882812 72.615234375 462.409179688 c 0
 72.615234375 447.168082727 75.2751490107 431.520076315 80.9798403443 416 c 1
 19 416 l 1
 19 319.666992188 l 1
 59.81640625 319.563476562 l 1
 45.81640625 294 34.333984375 248.30078125 34.333984375 207 c 0
 34.333984375 103.764648438 109 0 233 0 c 0
 292.54323096 0 337.274583823 15.599743954 369.570937239 38.6678048969 c 1
 390.842921595 17.1922139157 423.495327517 2.96117297349e-15 468 0 c 0
275.075915932 318.576826157 m 1
 265.946888542 292.584408129 252.455620745 270.237742648 230 255 c 1
 289 181 l 1
 295.396073706 184.501500204 301.297367975 188.314349088 306.749573602 192.401842439 c 0
 330.062710767 204.767572505 332.999999611 193.755561531 333 170 c 0
 333 142.338867188 304.95703125 110 233 110 c 0
 169 110 141.333984375 158.58203125 141.333984375 207 c 0
 141.333984375 258.08984375 161.002929688 317.681640625 201.572265625 318 c 2
 275.075915932 318.576826157 l 1
365.699193313 285.755154531 m 1
 391.065924526 373.640112633 378.475248889 473.84375 468 473.84375 c 0
 517.584960938 473.84375 563 433.390625 563 285.84375 c 0
 563 135.928710938 517.580078125 107.84375 468 107.84375 c 0
 451.932252683 107.84375 439.857981657 112.845197865 430.790493239 119.940913253 c 1
 436.390883404 136.200021827 439 152.322177114 439 167 c 0
 439 216.567690488 430.154958615 275.963204737 365.699193313 285.755154531 c 1
258.494174431 416 m 1
 254.572265625 416 l 1
 177.310987001 416 l 1
 154.577089751 446.605239753 163.538273796 496.873046875 206.615234375 496.873046875 c 0
 235.141601562 496.873046875 258.986328125 472.817382812 258.986328125 435.184570312 c 0
 258.986328125 429.521484375 258.483398438 423.551757812 257.421875 417.309570312 c 1
 258.494174431 416 l 1
EndSplineSet
EndChar

StartChar: si_Mba
Encoding: 51 3513 85
Width: 567
VWidth: 0
Flags: HW
HStem: 0 115<141.937 177.66 384.113 419.849> 429 98<146.737 204.948> 446.864 79.1357<264.649 300.162> 639.885 115.115<182.77 330.935>
VStem: 19 106.673<127.878 406.327> 168 82<122.556 201.997> 183.706 88.2939<365.994 418.725> 302.142 73.8584<365.137 446.702> 306 82<115.52 176.42> 439 114.516<127.305 486.614>
LayerCount: 2
Back
Fore
SplineSet
398.484375 115 m 0
 370.484375 115 388 141.00390625 388 178 c 0
 388 225.994140625 349 258 278 258 c 0
 207 258 168 225.994140625 168 178 c 0
 168 141.00390625 197.515625 115 169.515625 115 c 0
 130 115 125.672851562 202 125.672851562 265.912109375 c 0
 125.672851562 348 137.287109375 429 169.287109375 429 c 0
 180.1953125 429 183.361328125 422.934570312 183.706054688 412.546875 c 0
 178 346 191.426757812 275 279 275 c 0
 365 275 376 347.137695312 376 412.094726562 c 0
 376 469.645507812 346 526 286 526 c 0
 259.226480595 526 244.959485969 517.442904098 234.120319751 506.203162888 c 1
 216.863139777 518.849541988 194.226766589 527 167.287109375 527 c 0
 63.287109375 527 19 389 19 253 c 0
 19 115 50 0 162 0 c 0
 228.474609375 0 262 47 262 87 c 0
 262 118 250 134.673828125 250 151 c 0
 250 164.092773438 261 177 278 177 c 0
 295 177 306 164.092773438 306 151 c 0
 306 134.673828125 295 118 295 87 c 0
 295 47 339.525390625 0 406 0 c 0
 540 0 553.515625 181.99609375 553.515625 293 c 0
 553.515625 599.055664062 451.208984375 755 250.42578125 755 c 0
 163.705078125 755 79.1337890625 707.868164062 43.1494140625 613.029296875 c 1
 152.181640625 576.85546875 l 1
 169.237304688 618.959960938 209.322265625 639.884765625 250.42578125 639.884765625 c 0
 375.34765625 639.884765625 439 522.796875 439 293 c 0
 439 239.959960938 438 115 398.484375 115 c 0
271.481272221 445.153800685 m 0
 275.619601812 446.572860011 279.780955961 446.864257812 282.774414062 446.864257812 c 0
 299.166015625 446.864257812 302.141601562 425.854492188 302.141601562 404.020507812 c 0
 302.141601562 382.995117188 295.823242188 364 285 364 c 0
 267 364 269 399 272 438 c 0
 271.944693328 440.378186913 271.770970581 442.76555031 271.481272221 445.153800685 c 0
EndSplineSet
EndChar

StartChar: si_Ssa
Encoding: 57 3522 86
Width: 556
VWidth: 0
Flags: HW
HStem: 318.437 98<154.447 233.201 359 414> 496 98<146.697 239.828 327.611 420.743>
VStem: 19 107<169.066 290.298> 46.8623 93.4756<405.445 490.554> 233.533 100.373<367.946 537.336> 427.102 93.4756<405.445 490.554> 441.439 107<165.195 291.355>
LayerCount: 2
Back
Fore
SplineSet
283.719726562 556.696484735 m 1
 310.625638254 581.426397938 345.650967815 594 381.91796875 594 c 0
 468.477539062 594 520.577148438 532.13671875 520.577148438 456.407226562 c 0
 520.577148438 429.033466855 510.122237886 396.659450217 491.370120742 371.608788652 c 1
 529.431947777 336.324467643 548.439453125 283.385360754 548.439453125 224.436523438 c 0
 548.439453125 -90.5634765625 19 -90.5595703125 19 224.436523438 c 0
 19 283.385360754 38.0075053479 336.324467643 76.0693323835 371.60878865 c 1
 57.3172152396 396.659450216 46.8623046866 429.033466855 46.8623046875 456.407226562 c 0
 46.8623046875 532.13671875 98.9619140625 594 185.521484375 594 c 0
 221.78848531 594 256.813814871 581.426397938 283.719726562 556.696484735 c 1
332.782375393 451.182380098 m 0
 333.522998423 443.738713203 333.906249382 436.01072977 333.90625 428 c 0
 333.90625 424.243399694 333.805922761 420.385245551 333.608561501 416.436523438 c 2
 334.23828125 416.436523438 l 1
 334.23828125 416.436523438 339.95703125 416.436523438 365 416.436523438 c 0
 382.334705955 416.436523438 398.439035615 414.704145465 413.313754904 411.429909779 c 1
 420.921248725 420.916873299 427.101562521 439.529457457 427.1015625 451.1640625 c 0
 427.1015625 475 411.2734375 496 381.91796875 496 c 0
 357.924951236 496 338.38646362 478.982562821 332.782375393 451.182380098 c 0
234.657077509 451.182384274 m 0
 229.052987533 478.982564549 209.514500682 495.999999999 185.521484375 496 c 0
 156.166015625 496 140.337890625 475 140.337890625 451.1640625 c 0
 140.337890625 439.529457425 146.518204354 420.916873404 154.125698117 411.429909847 c 1
 169.00041745 414.704145449 185.104747139 416.436523429 202.439453125 416.436523438 c 0
 221.921875 416.436523438 233.201171875 416.436523438 233.201171875 416.436523438 c 1
 233.830891624 416.436523438 l 2
 233.633530364 420.385245551 233.533203125 424.243399694 233.533203125 428 c 0
 233.533203125 436.010731308 233.916454225 443.738716112 234.657077509 451.182384274 c 0
317.146742621 318.436523438 m 1
 208.439453125 318.436523438 l 2
 153.439453125 318.436523438 126 276.162109375 126 224.436523438 c 0
 126 174.177819322 157.094237067 139.757817419 199.757674983 121.120755225 c 1
 195.707380112 230.182351616 263.138703069 280.009691963 317.146742621 318.436523438 c 1
292.420416996 104.774383118 m 1
 368.275910683 107.677633987 441.439453125 147.632101844 441.439453125 224.436523438 c 0
 441.439453125 254.688052899 432.05391265 281.706851891 413.25860761 298.92682438 c 1
 355.619010229 244.909075352 280.615175587 201.967937262 292.420416996 104.774383118 c 1
EndSplineSet
EndChar

StartChar: si_Ttha
Encoding: 35 3496 88
Width: 561
VWidth: 0
Flags: HW
HStem: 0 115<348.513 412.595> 357.212 117.503<153.246 238.093>
VStem: 230.417 95.9111<136.57 249.5> 433.026 115<133.329 504.396>
LayerCount: 2
Back
Fore
SplineSet
137.23046875 304 m 0
 125.235351562 265.024414062 119.787109375 124 167.786132812 115 c 0
 213.686523438 106.393554688 230.416992188 176.75 230.416992188 249.5 c 1
 326.328125 249.5 l 1
 326.328125 176.75 341.795898438 115 384.786132812 115 c 0
 432.786132812 115 433.026367188 239.958007812 433.026367188 293 c 0
 433.026367188 350.052891159 427.254359879 409.167623734 418.392918515 461.008644309 c 1
 340.818081465 463.404088106 242.797851502 525.10676161 242.797851562 611.133789062 c 0
 242.797851562 686.51171875 315.58984375 697.581054688 267.681640625 733 c 1
 339.681640625 817 l 1
 418.659179688 764.920898438 473.071289062 686.227539062 505.168945312 588 c 0
 529.157226562 514.590820312 548.026367188 410 548.026367188 293 c 0
 548.026367188 181.99609375 542.541992188 0 384.786132812 0 c 0
 328.866210938 0 290.84375 33.14453125 276.0234375 79.0302734375 c 1
 259.877929688 31.6025390625 220.465820312 0 167.786132812 0 c 0
 -0.2138671875 0 7.1923828125 258 33.0712890625 341 c 0
 58.376953125 422.157226562 117.951171875 474.71484375 184.875 474.71484375 c 0
 212.641601562 474.71484375 241.673828125 465.66796875 270.046875 445.862304688 c 1
 232.181640625 345.604492188 l 1
 218.334960938 353.59375 205.6640625 357.211914062 194.318359375 357.211914062 c 0
 166.779296875 357.211914062 147.045898438 335.891601562 137.23046875 304 c 0
351.932438504 650.7122561 m 1
 314.137032114 631.437728667 320.156877884 566.830585504 395.615713505 557.677528228 c 1
 384.417268067 592.213449377 369.93946748 623.44015412 351.932438504 650.7122561 c 1
EndSplineSet
EndChar

StartChar: dottedcircle
Encoding: 83 9676 89
Width: 682
VWidth: 0
Flags: W
HStem: -25 124<288.955 382.841> 34 124<148.039 242.828 435.478 528.389> 178 124<90.5948 185.75 495.594 590.75> 322 123<153.535 247.865 438.735 534.665> 380 125<297.173 390.767>
VStem: 76.0293 124.433<192.796 287.368> 132.984 124.896<48.8579 143.123 340.746 424.585> 274.448 122.896<-10.6431 84.6112> 282.778 122.916<394.648 490.183> 420.541 122.783<48.6401 143.335 338.798 427.202> 481.029 124.433<192.797 287.368>
LayerCount: 2
Back
Fore
SplineSet
132.984375 98.037109375 m 0x62
 134.654296875 131.916992188 161.1640625 158 195.78515625 158 c 0
 230.407226562 158 259.86328125 131.522460938 257.880859375 93.962890625 c 1
 256.213867188 60.0859375 229.702148438 34 195.081054688 34 c 0
 160.444335938 34 131.001953125 60.4208984375 132.984375 98.037109375 c 0x62
274.448242188 39.037109375 m 0xa1
 276.045898438 71.515625 300.859375 99 336.249023438 99 c 0
 371.734375 99 399.252929688 71.0546875 397.344726562 34.9619140625 c 1
 395.748046875 2.4873046875 370.9375 -25 335.544921875 -25 c 0
 300.071289062 -25 272.537109375 2.8466796875 274.448242188 39.037109375 c 0xa1
76.029296875 241.12109375 m 0x24
 76.9638671875 275.376953125 103.444335938 302 138.366210938 302 c 0
 172.986328125 302 202.446289062 275.524414062 200.461914062 237.959960938 c 1
 198.825195312 204.764648438 173.170898438 178 138.161132812 178 c 0
 103.401367188 178 74.9580078125 204.491210938 76.029296875 241.12109375 c 0x24
138.826171875 386.677734375 m 0
 141.376953125 419.798828125 167.69921875 445 201.658203125 445 c 0
 236.260742188 445 265.6796875 417.995117188 262.57421875 380.323242188 c 1
 260.026367188 347.200195312 233.69921875 322 199.741210938 322 c 0x30
 165.11328125 322 135.715820312 348.927734375 138.826171875 386.677734375 c 0
420.541015625 98.9443359375 m 0x6040
 422.829101562 131.086914062 447.70703125 158 482.78515625 158 c 0
 518.569335938 158 546.106445312 129.43359375 543.32421875 93.0556640625 c 1
 541.038085938 60.916015625 516.16015625 34 481.081054688 34 c 0
 445.274414062 34 417.754882812 62.48828125 420.541015625 98.9443359375 c 0x6040
282.778320312 444.336914062 m 0x2880
 284.217773438 476.874023438 308.91015625 505 344.860351562 505 c 0
 381.409179688 505 407.3671875 475.806640625 405.694335938 440.663085938 c 1
 404.268554688 408.513671875 380.145507812 380 343.98828125 380 c 0
 307.809570312 380 281.076171875 408.669921875 282.778320312 444.336914062 c 0x2880
481.029296875 241.120117188 m 0x2020
 481.963867188 275.376953125 508.4453125 302 543.366210938 302 c 0
 577.986328125 302 607.446289062 275.524414062 605.461914062 237.959960938 c 1
 603.825195312 204.764648438 578.170898438 178 543.16015625 178 c 0
 508.400390625 178 479.958007812 204.4921875 481.029296875 241.120117188 c 0x2020
424.262695312 385.75 m 0
 426.126953125 419.955078125 453.293945312 445 487.158203125 445 c 0
 521.0625 445 551.353515625 419.30859375 549.13671875 381.25 c 1
 547.275390625 347.043945312 520.104492188 322 486.241210938 322 c 0x30
 452.319335938 322 422.045898438 347.6328125 424.262695312 385.75 c 0
EndSplineSet
Validated: 33
EndChar

StartChar: si_V.halant
Encoding: 386 -1 376
Width: 571
VWidth: 0
Flags: W
HStem: 0 115<193.612 347.262> 306 85<191.969 253.753 270.188 277.248> 444 87.5635<172.355 245.396> 771 100<187.768 372.029>
VStem: 40 110.676<154.911 291.862> 79.7246 89.4805<389.062 441.95> 400.061 115<646.981 745.501> 416.188 115<199.266 482.288>
LayerCount: 2
Back
Fore
SplineSet
375.188476562 569 m 5xf2
 342.188476562 611 l 5
 362.060546875 652 l 21
 388.188476562 659 400.060546875 680.732421875 400.060546875 705 c 4
 400.060546875 736 369.188476562 771 281.188476562 771 c 4
 113.446289062 771 181.188476562 677 213.188476562 679 c 5
 183.188476562 645 l 5
 100.188476562 652 l 5
 30.1884765625 747 59.1572265625 871 281.188476562 871 c 4
 432.40234375 871 515.060546875 792.3046875 515.060546875 705 c 4
 515.060546875 611 425.840820312 569 375.188476562 569 c 5xf2
190.188476562 356 m 5
 110.188476562 318.563476562 l 5
 90.1884765625 351 79.724609375 380.620117188 79.724609375 409.272460938 c 4
 79.724609375 481.53515625 128.6953125 531.563476562 202.997070312 531.563476562 c 4
 279.983398438 531.563476562 351.381835938 474.899414062 351.381835938 365.563476562 c 4
 351.381835938 351 348.188476562 325 344.1328125 306 c 5
 344.1328125 306 252.6875 366.313476562 253.752929688 371.875 c 4
 260.29296875 406 244.29296875 444 202.997070312 444 c 4
 178.197265625 444 169.205078125 426.133789062 169.205078125 404.787109375 c 4xf4
 169.205078125 386.79296875 181.490234375 370.325195312 190.188476562 356 c 5
54.1884765625 628 m 5
 181.046875 709.354492188 400.217773438 698.924804688 480.245117188 576 c 4
 515.97265625 521.122070312 531.188476562 445.426757812 531.188476562 354 c 4
 531.188476562 118 450.188476562 0 270.188476562 0 c 4
 92.1884765625 0 40 137 40 218.826171875 c 4
 40 279.354492188 59.8984375 335.661132812 90.3779296875 362 c 4
 111.397460938 380.1640625 139.474609375 391 176.076171875 391 c 4
 183.076171875 391 256.71875 391 270.188476562 391 c 5
 299.188476562 363 344.1328125 306 344.1328125 306 c 5
 320.125 306 219.076171875 306 219.076171875 306 c 6
 163.076171875 306 150.67578125 270.6015625 150.67578125 226.6015625 c 4
 150.67578125 174 177.268554688 115 270.188476562 115 c 4
 374.640625 115 416.188476562 195.017578125 416.188476562 354 c 4xf9
 416.188476562 423.624023438 403.974609375 479.203125 374.486328125 515 c 4
 319.1328125 582.193359375 223.79296875 596.069335938 106.188476562 534 c 5
 54.1884765625 628 l 5
EndSplineSet
Validated: 37
Ligature2: "'abvs' Above Base Substitutions lookup 0-1" si_Va si_Halant
EndChar

StartChar: si_VI
Encoding: 387 -1 377
Width: 571
VWidth: 0
Flags: W
HStem: 0 115<193.612 347.262> 306 85<191.969 253.753 270.188 277.248> 444 87.5635<172.355 245.396> 558 114.87<166.598 376.188> 771 100<184.752 372.029>
VStem: 40 110.676<154.911 291.862> 46.4463 115<676.139 747.342> 79.7246 89.4805<389.062 441.95> 400.061 115<646.981 745.501> 416.188 115<199.266 481.174>
LayerCount: 2
Back
Fore
SplineSet
375.188476562 569 m 5xfa80
 342.188476562 611 l 5
 362.060546875 652 l 21
 388.188476562 659 400.060546875 680.732421875 400.060546875 705 c 4
 400.060546875 736 369.188476562 771 281.188476562 771 c 4
 193.188476562 771 161.446289062 741 161.446289062 710 c 4
 161.446289062 685.732421875 179.318359375 672.870117188 201.318359375 672.870117188 c 4
 209.045898438 672.870117188 257.706054688 675 266.188476562 675 c 5
 337.188476562 630.33203125 l 5
 266.188476562 560 l 5
 247.188476562 560 221.318359375 558 187.188476562 558 c 4
 136.536132812 558 46.4462890625 598.970703125 46.4462890625 710 c 4
 46.4462890625 797.3046875 129.974609375 871 281.188476562 871 c 4
 432.40234375 871 515.060546875 792.3046875 515.060546875 705 c 4
 515.060546875 611 425.840820312 569 375.188476562 569 c 5xfa80
190.188476562 356 m 5
 110.188476562 318.563476562 l 5
 90.1884765625 351 79.724609375 380.620117188 79.724609375 409.272460938 c 4
 79.724609375 481.53515625 128.6953125 531.563476562 202.997070312 531.563476562 c 4
 279.983398438 531.563476562 351.381835938 474.899414062 351.381835938 365.563476562 c 4
 351.381835938 351 348.188476562 325 344.1328125 306 c 5
 344.1328125 306 252.6875 366.313476562 253.752929688 371.875 c 4
 260.29296875 406 244.29296875 444 202.997070312 444 c 4
 178.197265625 444 169.205078125 426.133789062 169.205078125 404.787109375 c 4xf9
 169.205078125 386.79296875 181.490234375 370.325195312 190.188476562 356 c 5
266.188476562 675 m 5
 460.521484375 675 531.188476562 551.029296875 531.188476562 354 c 4
 531.188476562 118 450.188476562 0 270.188476562 0 c 4
 92.1884765625 0 40 137 40 218.826171875 c 4
 40 279.354492188 59.8984375 335.661132812 90.3779296875 362 c 4
 111.397460938 380.1640625 139.474609375 391 176.076171875 391 c 4
 183.076171875 391 256.71875 391 270.188476562 391 c 5
 299.188476562 363 344.1328125 306 344.1328125 306 c 5
 320.125 306 219.076171875 306 219.076171875 306 c 6
 163.076171875 306 150.67578125 270.6015625 150.67578125 226.6015625 c 4
 150.67578125 174 177.268554688 115 270.188476562 115 c 4
 374.640625 115 416.188476562 195.017578125 416.188476562 354 c 4xfc40
 416.188476562 480 376.188476562 560 266.188476562 560 c 5
 266.188476562 675 l 5
EndSplineSet
Validated: 37
Ligature2: "'abvs' Above Base Substitutions lookup 0-1" si_Va si_MatraI
EndChar

StartChar: si_VIi
Encoding: 388 -1 378
Width: 571
VWidth: 0
Flags: W
HStem: 0 115<193.612 347.262> 306 85<191.969 253.753 270.188 277.248> 444 87.5635<172.355 245.396> 590 85<349.4 388.425> 756.79 114.21<225.602 420.174> 771 76<232.234 421.061>
VStem: 40 110.676<154.911 291.862> 46.4463 115<676.139 747.342> 79.7246 89.4805<389.062 441.95> 255.061 91.4756<680.865 760.263> 416.188 115<199.266 481.174> 425.579 89.4814<651 784.152>
LayerCount: 2
Back
Fore
SplineSet
190.188476562 356 m 5xf0c0
 110.188476562 318.563476562 l 5
 90.1884765625 351 79.724609375 380.620117188 79.724609375 409.272460938 c 4
 79.724609375 481.53515625 128.6953125 531.563476562 202.997070312 531.563476562 c 4
 279.983398438 531.563476562 351.381835938 474.899414062 351.381835938 365.563476562 c 4
 351.381835938 351 348.188476562 325 344.1328125 306 c 5
 344.1328125 306 252.6875 366.313476562 253.752929688 371.875 c 4
 260.29296875 406 244.29296875 444 202.997070312 444 c 4
 178.197265625 444 169.205078125 426.133789062 169.205078125 404.787109375 c 4
 169.205078125 386.79296875 181.490234375 370.325195312 190.188476562 356 c 5xf0c0
266.188476562 675 m 5
 460.521484375 675 531.188476562 551.029296875 531.188476562 354 c 4
 531.188476562 118 450.188476562 0 270.188476562 0 c 4
 92.1884765625 0 40 137 40 218.826171875 c 4
 40 279.354492188 59.8984375 335.661132812 90.3779296875 362 c 4
 111.397460938 380.1640625 139.474609375 391 176.076171875 391 c 4
 183.076171875 391 256.71875 391 270.188476562 391 c 5
 299.188476562 363 344.1328125 306 344.1328125 306 c 5
 320.125 306 219.076171875 306 219.076171875 306 c 6
 163.076171875 306 150.67578125 270.6015625 150.67578125 226.6015625 c 4
 150.67578125 174 177.268554688 115 270.188476562 115 c 4
 374.640625 115 416.188476562 195.017578125 416.188476562 354 c 4xf260
 416.188476562 480 376.188476562 560 266.188476562 560 c 5
 266.188476562 675 l 5
255.060546875 717 m 4
 255.060546875 789 313.060546875 847 385.060546875 847 c 4
 457.060546875 847 515.060546875 789 515.060546875 717 c 4xf450
 515.060546875 645 457.060546875 587 385.060546875 587 c 4
 313.060546875 587 255.060546875 645 255.060546875 717 c 4
346.536132812 716.615234375 m 4
 346.536132812 694.364257812 364.168945312 676.440429688 386.057617188 676.440429688 c 4
 407.946289062 676.440429688 425.579101562 694.364257812 425.579101562 716.615234375 c 4
 425.579101562 738.865234375 407.946289062 756.790039062 386.057617188 756.790039062 c 4xf850
 364.168945312 756.790039062 346.536132812 738.865234375 346.536132812 716.615234375 c 4
366.31640625 590 m 5
 333.31640625 632 l 5
 353.188476562 673 l 5
 385.188476562 664 425.579101562 679 425.579101562 716.615234375 c 4
 425.579101562 764 369.188476562 771 281.188476562 771 c 4
 193.188476562 771 161.446289062 741 161.446289062 710 c 4
 161.446289062 685.732421875 179.318359375 672.870117188 201.318359375 672.870117188 c 4
 209.045898438 672.870117188 257.706054688 675 266.188476562 675 c 5
 337.188476562 630.33203125 l 5
 266.188476562 560 l 5
 247.188476562 560 221.318359375 558 187.188476562 558 c 4
 136.536132812 558 46.4462890625 598.970703125 46.4462890625 710 c 4xf550
 46.4462890625 797.3046875 129.974609375 871 281.188476562 871 c 4
 432.40234375 871 515.060546875 804.3046875 515.060546875 717 c 4
 515.060546875 623 416.96875 590 366.31640625 590 c 5
EndSplineSet
Validated: 37
Ligature2: "'abvs' Above Base Substitutions lookup 0-1" si_Va si_MatraIi
EndChar

